<?xml version="1.0" encoding="utf-8" standalone="no"?>
<!DOCTYPE svg PUBLIC "-//W3C//DTD SVG 1.1//EN"
  "http://www.w3.org/Graphics/SVG/1.1/DTD/svg11.dtd">
<svg xmlns:xlink="http://www.w3.org/1999/xlink" width="713.908835pt" height="495.034375pt" viewBox="0 0 713.908835 495.034375" xmlns="http://www.w3.org/2000/svg" version="1.1">
 <metadata>
  <rdf:RDF xmlns:dc="http://purl.org/dc/elements/1.1/" xmlns:cc="http://creativecommons.org/ns#" xmlns:rdf="http://www.w3.org/1999/02/22-rdf-syntax-ns#">
   <cc:Work>
    <dc:type rdf:resource="http://purl.org/dc/dcmitype/StillImage"/>
    <dc:date>2026-02-28T22:41:10.281952</dc:date>
    <dc:format>image/svg+xml</dc:format>
    <dc:creator>
     <cc:Agent>
      <dc:title>Matplotlib v3.10.8, https://matplotlib.org/</dc:title>
     </cc:Agent>
    </dc:creator>
   </cc:Work>
  </rdf:RDF>
 </metadata>
 <defs>
  <style type="text/css">*{stroke-linejoin: round; stroke-linecap: butt}</style>
 </defs>
 <g id="figure_1">
  <g id="patch_1">
   <path d="M -0 495.034375 
L 713.908835 495.034375 
L 713.908835 0 
L -0 0 
z
" style="fill: #ffffff"/>
  </g>
  <g id="axes_1">
   <g id="patch_2">
    <path d="M 226.865625 457.478125 
L 705.865625 457.478125 
L 705.865625 22.318125 
L 226.865625 22.318125 
z
" style="fill: #ffffff"/>
   </g>
   <g id="patch_3">
    <path d="M 226.865625 437.698125 
L 339.737495 437.698125 
L 339.737495 421.714287 
L 226.865625 421.714287 
z
" clip-path="url(#pcb696a2407)" style="fill: #6a00a8"/>
   </g>
   <g id="patch_4">
    <path d="M 226.865625 417.718327 
L 344.44049 417.718327 
L 344.44049 401.734489 
L 226.865625 401.734489 
z
" clip-path="url(#pcb696a2407)" style="fill: #7701a8"/>
   </g>
   <g id="patch_5">
    <path d="M 226.865625 397.738529 
L 349.143485 397.738529 
L 349.143485 381.754691 
L 226.865625 381.754691 
z
" clip-path="url(#pcb696a2407)" style="fill: #8305a7"/>
   </g>
   <g id="patch_6">
    <path d="M 226.865625 377.758731 
L 349.143485 377.758731 
L 349.143485 361.774893 
L 226.865625 361.774893 
z
" clip-path="url(#pcb696a2407)" style="fill: #8e0ca4"/>
   </g>
   <g id="patch_7">
    <path d="M 226.865625 357.778933 
L 353.846479 357.778933 
L 353.846479 341.795095 
L 226.865625 341.795095 
z
" clip-path="url(#pcb696a2407)" style="fill: #99159f"/>
   </g>
   <g id="patch_8">
    <path d="M 226.865625 337.799135 
L 358.549474 337.799135 
L 358.549474 321.815297 
L 226.865625 321.815297 
z
" clip-path="url(#pcb696a2407)" style="fill: #a31e9a"/>
   </g>
   <g id="patch_9">
    <path d="M 226.865625 317.819337 
L 363.252468 317.819337 
L 363.252468 301.835499 
L 226.865625 301.835499 
z
" clip-path="url(#pcb696a2407)" style="fill: #ad2793"/>
   </g>
   <g id="patch_10">
    <path d="M 226.865625 297.839539 
L 400.876425 297.839539 
L 400.876425 281.855701 
L 226.865625 281.855701 
z
" clip-path="url(#pcb696a2407)" style="fill: #b6308b"/>
   </g>
   <g id="patch_11">
    <path d="M 226.865625 277.859741 
L 405.57942 277.859741 
L 405.57942 261.875903 
L 226.865625 261.875903 
z
" clip-path="url(#pcb696a2407)" style="fill: #bf3984"/>
   </g>
   <g id="patch_12">
    <path d="M 226.865625 257.879943 
L 424.391398 257.879943 
L 424.391398 241.896105 
L 226.865625 241.896105 
z
" clip-path="url(#pcb696a2407)" style="fill: #c7427c"/>
   </g>
   <g id="patch_13">
    <path d="M 226.865625 237.900145 
L 433.797387 237.900145 
L 433.797387 221.916307 
L 226.865625 221.916307 
z
" clip-path="url(#pcb696a2407)" style="fill: #cf4c74"/>
   </g>
   <g id="patch_14">
    <path d="M 226.865625 217.920347 
L 447.906371 217.920347 
L 447.906371 201.936509 
L 226.865625 201.936509 
z
" clip-path="url(#pcb696a2407)" style="fill: #d6556d"/>
   </g>
   <g id="patch_15">
    <path d="M 226.865625 197.940549 
L 447.906371 197.940549 
L 447.906371 181.956711 
L 226.865625 181.956711 
z
" clip-path="url(#pcb696a2407)" style="fill: #dd5e66"/>
   </g>
   <g id="patch_16">
    <path d="M 226.865625 177.960751 
L 452.609366 177.960751 
L 452.609366 161.976913 
L 226.865625 161.976913 
z
" clip-path="url(#pcb696a2407)" style="fill: #e3685f"/>
   </g>
   <g id="patch_17">
    <path d="M 226.865625 157.980953 
L 457.31236 157.980953 
L 457.31236 141.997115 
L 226.865625 141.997115 
z
" clip-path="url(#pcb696a2407)" style="fill: #e97158"/>
   </g>
   <g id="patch_18">
    <path d="M 226.865625 138.001155 
L 457.31236 138.001155 
L 457.31236 122.017317 
L 226.865625 122.017317 
z
" clip-path="url(#pcb696a2407)" style="fill: #ee7b51"/>
   </g>
   <g id="patch_19">
    <path d="M 226.865625 118.021357 
L 480.827333 118.021357 
L 480.827333 102.037519 
L 226.865625 102.037519 
z
" clip-path="url(#pcb696a2407)" style="fill: #f3854b"/>
   </g>
   <g id="patch_20">
    <path d="M 226.865625 98.041559 
L 523.154285 98.041559 
L 523.154285 82.057721 
L 226.865625 82.057721 
z
" clip-path="url(#pcb696a2407)" style="fill: #f79044"/>
   </g>
   <g id="patch_21">
    <path d="M 226.865625 78.061761 
L 631.323161 78.061761 
L 631.323161 62.077923 
L 226.865625 62.077923 
z
" clip-path="url(#pcb696a2407)" style="fill: #fa9b3d"/>
   </g>
   <g id="patch_22">
    <path d="M 226.865625 58.081963 
L 683.056101 58.081963 
L 683.056101 42.098125 
L 226.865625 42.098125 
z
" clip-path="url(#pcb696a2407)" style="fill: #fca636"/>
   </g>
   <g id="matplotlib.axis_1">
    <g id="xtick_1">
     <g id="line2d_1">
      <path d="M 226.865625 457.478125 
L 226.865625 22.318125 
" clip-path="url(#pcb696a2407)" style="fill: none; stroke: #b0b0b0; stroke-opacity: 0.3; stroke-width: 0.8; stroke-linecap: square"/>
     </g>
     <g id="line2d_2">
      <defs>
       <path id="mf7a1112b03" d="M 0 0 
L 0 3.5 
" style="stroke: #000000; stroke-width: 0.8"/>
      </defs>
      <g>
       <use xlink:href="#mf7a1112b03" x="226.865625" y="457.478125" style="stroke: #000000; stroke-width: 0.8"/>
      </g>
     </g>
     <g id="text_1">
      <!-- 0 -->
      <g transform="translate(223.684375 472.076563) scale(0.1 -0.1)">
       <defs>
        <path id="DejaVuSans-30" d="M 2034 4250 
Q 1547 4250 1301 3770 
Q 1056 3291 1056 2328 
Q 1056 1369 1301 889 
Q 1547 409 2034 409 
Q 2525 409 2770 889 
Q 3016 1369 3016 2328 
Q 3016 3291 2770 3770 
Q 2525 4250 2034 4250 
z
M 2034 4750 
Q 2819 4750 3233 4129 
Q 3647 3509 3647 2328 
Q 3647 1150 3233 529 
Q 2819 -91 2034 -91 
Q 1250 -91 836 529 
Q 422 1150 422 2328 
Q 422 3509 836 4129 
Q 1250 4750 2034 4750 
z
" transform="scale(0.015625)"/>
       </defs>
       <use xlink:href="#DejaVuSans-30"/>
      </g>
     </g>
    </g>
    <g id="xtick_2">
     <g id="line2d_3">
      <path d="M 320.925517 457.478125 
L 320.925517 22.318125 
" clip-path="url(#pcb696a2407)" style="fill: none; stroke: #b0b0b0; stroke-opacity: 0.3; stroke-width: 0.8; stroke-linecap: square"/>
     </g>
     <g id="line2d_4">
      <g>
       <use xlink:href="#mf7a1112b03" x="320.925517" y="457.478125" style="stroke: #000000; stroke-width: 0.8"/>
      </g>
     </g>
     <g id="text_2">
      <!-- 20 -->
      <g transform="translate(314.563017 472.076563) scale(0.1 -0.1)">
       <defs>
        <path id="DejaVuSans-32" d="M 1228 531 
L 3431 531 
L 3431 0 
L 469 0 
L 469 531 
Q 828 903 1448 1529 
Q 2069 2156 2228 2338 
Q 2531 2678 2651 2914 
Q 2772 3150 2772 3378 
Q 2772 3750 2511 3984 
Q 2250 4219 1831 4219 
Q 1534 4219 1204 4116 
Q 875 4013 500 3803 
L 500 4441 
Q 881 4594 1212 4672 
Q 1544 4750 1819 4750 
Q 2544 4750 2975 4387 
Q 3406 4025 3406 3419 
Q 3406 3131 3298 2873 
Q 3191 2616 2906 2266 
Q 2828 2175 2409 1742 
Q 1991 1309 1228 531 
z
" transform="scale(0.015625)"/>
       </defs>
       <use xlink:href="#DejaVuSans-32"/>
       <use xlink:href="#DejaVuSans-30" transform="translate(63.623047 0)"/>
      </g>
     </g>
    </g>
    <g id="xtick_3">
     <g id="line2d_5">
      <path d="M 414.985409 457.478125 
L 414.985409 22.318125 
" clip-path="url(#pcb696a2407)" style="fill: none; stroke: #b0b0b0; stroke-opacity: 0.3; stroke-width: 0.8; stroke-linecap: square"/>
     </g>
     <g id="line2d_6">
      <g>
       <use xlink:href="#mf7a1112b03" x="414.985409" y="457.478125" style="stroke: #000000; stroke-width: 0.8"/>
      </g>
     </g>
     <g id="text_3">
      <!-- 40 -->
      <g transform="translate(408.622909 472.076563) scale(0.1 -0.1)">
       <defs>
        <path id="DejaVuSans-34" d="M 2419 4116 
L 825 1625 
L 2419 1625 
L 2419 4116 
z
M 2253 4666 
L 3047 4666 
L 3047 1625 
L 3713 1625 
L 3713 1100 
L 3047 1100 
L 3047 0 
L 2419 0 
L 2419 1100 
L 313 1100 
L 313 1709 
L 2253 4666 
z
" transform="scale(0.015625)"/>
       </defs>
       <use xlink:href="#DejaVuSans-34"/>
       <use xlink:href="#DejaVuSans-30" transform="translate(63.623047 0)"/>
      </g>
     </g>
    </g>
    <g id="xtick_4">
     <g id="line2d_7">
      <path d="M 509.045301 457.478125 
L 509.045301 22.318125 
" clip-path="url(#pcb696a2407)" style="fill: none; stroke: #b0b0b0; stroke-opacity: 0.3; stroke-width: 0.8; stroke-linecap: square"/>
     </g>
     <g id="line2d_8">
      <g>
       <use xlink:href="#mf7a1112b03" x="509.045301" y="457.478125" style="stroke: #000000; stroke-width: 0.8"/>
      </g>
     </g>
     <g id="text_4">
      <!-- 60 -->
      <g transform="translate(502.682801 472.076563) scale(0.1 -0.1)">
       <defs>
        <path id="DejaVuSans-36" d="M 2113 2584 
Q 1688 2584 1439 2293 
Q 1191 2003 1191 1497 
Q 1191 994 1439 701 
Q 1688 409 2113 409 
Q 2538 409 2786 701 
Q 3034 994 3034 1497 
Q 3034 2003 2786 2293 
Q 2538 2584 2113 2584 
z
M 3366 4563 
L 3366 3988 
Q 3128 4100 2886 4159 
Q 2644 4219 2406 4219 
Q 1781 4219 1451 3797 
Q 1122 3375 1075 2522 
Q 1259 2794 1537 2939 
Q 1816 3084 2150 3084 
Q 2853 3084 3261 2657 
Q 3669 2231 3669 1497 
Q 3669 778 3244 343 
Q 2819 -91 2113 -91 
Q 1303 -91 875 529 
Q 447 1150 447 2328 
Q 447 3434 972 4092 
Q 1497 4750 2381 4750 
Q 2619 4750 2861 4703 
Q 3103 4656 3366 4563 
z
" transform="scale(0.015625)"/>
       </defs>
       <use xlink:href="#DejaVuSans-36"/>
       <use xlink:href="#DejaVuSans-30" transform="translate(63.623047 0)"/>
      </g>
     </g>
    </g>
    <g id="xtick_5">
     <g id="line2d_9">
      <path d="M 603.105193 457.478125 
L 603.105193 22.318125 
" clip-path="url(#pcb696a2407)" style="fill: none; stroke: #b0b0b0; stroke-opacity: 0.3; stroke-width: 0.8; stroke-linecap: square"/>
     </g>
     <g id="line2d_10">
      <g>
       <use xlink:href="#mf7a1112b03" x="603.105193" y="457.478125" style="stroke: #000000; stroke-width: 0.8"/>
      </g>
     </g>
     <g id="text_5">
      <!-- 80 -->
      <g transform="translate(596.742693 472.076563) scale(0.1 -0.1)">
       <defs>
        <path id="DejaVuSans-38" d="M 2034 2216 
Q 1584 2216 1326 1975 
Q 1069 1734 1069 1313 
Q 1069 891 1326 650 
Q 1584 409 2034 409 
Q 2484 409 2743 651 
Q 3003 894 3003 1313 
Q 3003 1734 2745 1975 
Q 2488 2216 2034 2216 
z
M 1403 2484 
Q 997 2584 770 2862 
Q 544 3141 544 3541 
Q 544 4100 942 4425 
Q 1341 4750 2034 4750 
Q 2731 4750 3128 4425 
Q 3525 4100 3525 3541 
Q 3525 3141 3298 2862 
Q 3072 2584 2669 2484 
Q 3125 2378 3379 2068 
Q 3634 1759 3634 1313 
Q 3634 634 3220 271 
Q 2806 -91 2034 -91 
Q 1263 -91 848 271 
Q 434 634 434 1313 
Q 434 1759 690 2068 
Q 947 2378 1403 2484 
z
M 1172 3481 
Q 1172 3119 1398 2916 
Q 1625 2713 2034 2713 
Q 2441 2713 2670 2916 
Q 2900 3119 2900 3481 
Q 2900 3844 2670 4047 
Q 2441 4250 2034 4250 
Q 1625 4250 1398 4047 
Q 1172 3844 1172 3481 
z
" transform="scale(0.015625)"/>
       </defs>
       <use xlink:href="#DejaVuSans-38"/>
       <use xlink:href="#DejaVuSans-30" transform="translate(63.623047 0)"/>
      </g>
     </g>
    </g>
    <g id="xtick_6">
     <g id="line2d_11">
      <path d="M 697.165085 457.478125 
L 697.165085 22.318125 
" clip-path="url(#pcb696a2407)" style="fill: none; stroke: #b0b0b0; stroke-opacity: 0.3; stroke-width: 0.8; stroke-linecap: square"/>
     </g>
     <g id="line2d_12">
      <g>
       <use xlink:href="#mf7a1112b03" x="697.165085" y="457.478125" style="stroke: #000000; stroke-width: 0.8"/>
      </g>
     </g>
     <g id="text_6">
      <!-- 100 -->
      <g transform="translate(687.621335 472.076563) scale(0.1 -0.1)">
       <defs>
        <path id="DejaVuSans-31" d="M 794 531 
L 1825 531 
L 1825 4091 
L 703 3866 
L 703 4441 
L 1819 4666 
L 2450 4666 
L 2450 531 
L 3481 531 
L 3481 0 
L 794 0 
L 794 531 
z
" transform="scale(0.015625)"/>
       </defs>
       <use xlink:href="#DejaVuSans-31"/>
       <use xlink:href="#DejaVuSans-30" transform="translate(63.623047 0)"/>
       <use xlink:href="#DejaVuSans-30" transform="translate(127.246094 0)"/>
      </g>
     </g>
    </g>
    <g id="text_7">
     <!-- Committee Members -->
     <g transform="translate(413.850781 485.754688) scale(0.1 -0.1)">
      <defs>
       <path id="DejaVuSans-43" d="M 4122 4306 
L 4122 3641 
Q 3803 3938 3442 4084 
Q 3081 4231 2675 4231 
Q 1875 4231 1450 3742 
Q 1025 3253 1025 2328 
Q 1025 1406 1450 917 
Q 1875 428 2675 428 
Q 3081 428 3442 575 
Q 3803 722 4122 1019 
L 4122 359 
Q 3791 134 3420 21 
Q 3050 -91 2638 -91 
Q 1578 -91 968 557 
Q 359 1206 359 2328 
Q 359 3453 968 4101 
Q 1578 4750 2638 4750 
Q 3056 4750 3426 4639 
Q 3797 4528 4122 4306 
z
" transform="scale(0.015625)"/>
       <path id="DejaVuSans-6f" d="M 1959 3097 
Q 1497 3097 1228 2736 
Q 959 2375 959 1747 
Q 959 1119 1226 758 
Q 1494 397 1959 397 
Q 2419 397 2687 759 
Q 2956 1122 2956 1747 
Q 2956 2369 2687 2733 
Q 2419 3097 1959 3097 
z
M 1959 3584 
Q 2709 3584 3137 3096 
Q 3566 2609 3566 1747 
Q 3566 888 3137 398 
Q 2709 -91 1959 -91 
Q 1206 -91 779 398 
Q 353 888 353 1747 
Q 353 2609 779 3096 
Q 1206 3584 1959 3584 
z
" transform="scale(0.015625)"/>
       <path id="DejaVuSans-6d" d="M 3328 2828 
Q 3544 3216 3844 3400 
Q 4144 3584 4550 3584 
Q 5097 3584 5394 3201 
Q 5691 2819 5691 2113 
L 5691 0 
L 5113 0 
L 5113 2094 
Q 5113 2597 4934 2840 
Q 4756 3084 4391 3084 
Q 3944 3084 3684 2787 
Q 3425 2491 3425 1978 
L 3425 0 
L 2847 0 
L 2847 2094 
Q 2847 2600 2669 2842 
Q 2491 3084 2119 3084 
Q 1678 3084 1418 2786 
Q 1159 2488 1159 1978 
L 1159 0 
L 581 0 
L 581 3500 
L 1159 3500 
L 1159 2956 
Q 1356 3278 1631 3431 
Q 1906 3584 2284 3584 
Q 2666 3584 2933 3390 
Q 3200 3197 3328 2828 
z
" transform="scale(0.015625)"/>
       <path id="DejaVuSans-69" d="M 603 3500 
L 1178 3500 
L 1178 0 
L 603 0 
L 603 3500 
z
M 603 4863 
L 1178 4863 
L 1178 4134 
L 603 4134 
L 603 4863 
z
" transform="scale(0.015625)"/>
       <path id="DejaVuSans-74" d="M 1172 4494 
L 1172 3500 
L 2356 3500 
L 2356 3053 
L 1172 3053 
L 1172 1153 
Q 1172 725 1289 603 
Q 1406 481 1766 481 
L 2356 481 
L 2356 0 
L 1766 0 
Q 1100 0 847 248 
Q 594 497 594 1153 
L 594 3053 
L 172 3053 
L 172 3500 
L 594 3500 
L 594 4494 
L 1172 4494 
z
" transform="scale(0.015625)"/>
       <path id="DejaVuSans-65" d="M 3597 1894 
L 3597 1613 
L 953 1613 
Q 991 1019 1311 708 
Q 1631 397 2203 397 
Q 2534 397 2845 478 
Q 3156 559 3463 722 
L 3463 178 
Q 3153 47 2828 -22 
Q 2503 -91 2169 -91 
Q 1331 -91 842 396 
Q 353 884 353 1716 
Q 353 2575 817 3079 
Q 1281 3584 2069 3584 
Q 2775 3584 3186 3129 
Q 3597 2675 3597 1894 
z
M 3022 2063 
Q 3016 2534 2758 2815 
Q 2500 3097 2075 3097 
Q 1594 3097 1305 2825 
Q 1016 2553 972 2059 
L 3022 2063 
z
" transform="scale(0.015625)"/>
       <path id="DejaVuSans-20" transform="scale(0.015625)"/>
       <path id="DejaVuSans-4d" d="M 628 4666 
L 1569 4666 
L 2759 1491 
L 3956 4666 
L 4897 4666 
L 4897 0 
L 4281 0 
L 4281 4097 
L 3078 897 
L 2444 897 
L 1241 4097 
L 1241 0 
L 628 0 
L 628 4666 
z
" transform="scale(0.015625)"/>
       <path id="DejaVuSans-62" d="M 3116 1747 
Q 3116 2381 2855 2742 
Q 2594 3103 2138 3103 
Q 1681 3103 1420 2742 
Q 1159 2381 1159 1747 
Q 1159 1113 1420 752 
Q 1681 391 2138 391 
Q 2594 391 2855 752 
Q 3116 1113 3116 1747 
z
M 1159 2969 
Q 1341 3281 1617 3432 
Q 1894 3584 2278 3584 
Q 2916 3584 3314 3078 
Q 3713 2572 3713 1747 
Q 3713 922 3314 415 
Q 2916 -91 2278 -91 
Q 1894 -91 1617 61 
Q 1341 213 1159 525 
L 1159 0 
L 581 0 
L 581 4863 
L 1159 4863 
L 1159 2969 
z
" transform="scale(0.015625)"/>
       <path id="DejaVuSans-72" d="M 2631 2963 
Q 2534 3019 2420 3045 
Q 2306 3072 2169 3072 
Q 1681 3072 1420 2755 
Q 1159 2438 1159 1844 
L 1159 0 
L 581 0 
L 581 3500 
L 1159 3500 
L 1159 2956 
Q 1341 3275 1631 3429 
Q 1922 3584 2338 3584 
Q 2397 3584 2469 3576 
Q 2541 3569 2628 3553 
L 2631 2963 
z
" transform="scale(0.015625)"/>
       <path id="DejaVuSans-73" d="M 2834 3397 
L 2834 2853 
Q 2591 2978 2328 3040 
Q 2066 3103 1784 3103 
Q 1356 3103 1142 2972 
Q 928 2841 928 2578 
Q 928 2378 1081 2264 
Q 1234 2150 1697 2047 
L 1894 2003 
Q 2506 1872 2764 1633 
Q 3022 1394 3022 966 
Q 3022 478 2636 193 
Q 2250 -91 1575 -91 
Q 1294 -91 989 -36 
Q 684 19 347 128 
L 347 722 
Q 666 556 975 473 
Q 1284 391 1588 391 
Q 1994 391 2212 530 
Q 2431 669 2431 922 
Q 2431 1156 2273 1281 
Q 2116 1406 1581 1522 
L 1381 1569 
Q 847 1681 609 1914 
Q 372 2147 372 2553 
Q 372 3047 722 3315 
Q 1072 3584 1716 3584 
Q 2034 3584 2315 3537 
Q 2597 3491 2834 3397 
z
" transform="scale(0.015625)"/>
      </defs>
      <use xlink:href="#DejaVuSans-43"/>
      <use xlink:href="#DejaVuSans-6f" transform="translate(69.824219 0)"/>
      <use xlink:href="#DejaVuSans-6d" transform="translate(131.005859 0)"/>
      <use xlink:href="#DejaVuSans-6d" transform="translate(228.417969 0)"/>
      <use xlink:href="#DejaVuSans-69" transform="translate(325.830078 0)"/>
      <use xlink:href="#DejaVuSans-74" transform="translate(353.613281 0)"/>
      <use xlink:href="#DejaVuSans-74" transform="translate(392.822266 0)"/>
      <use xlink:href="#DejaVuSans-65" transform="translate(432.03125 0)"/>
      <use xlink:href="#DejaVuSans-65" transform="translate(493.554688 0)"/>
      <use xlink:href="#DejaVuSans-20" transform="translate(555.078125 0)"/>
      <use xlink:href="#DejaVuSans-4d" transform="translate(586.865234 0)"/>
      <use xlink:href="#DejaVuSans-65" transform="translate(673.144531 0)"/>
      <use xlink:href="#DejaVuSans-6d" transform="translate(734.667969 0)"/>
      <use xlink:href="#DejaVuSans-62" transform="translate(832.080078 0)"/>
      <use xlink:href="#DejaVuSans-65" transform="translate(895.556641 0)"/>
      <use xlink:href="#DejaVuSans-72" transform="translate(957.080078 0)"/>
      <use xlink:href="#DejaVuSans-73" transform="translate(998.193359 0)"/>
     </g>
    </g>
   </g>
   <g id="matplotlib.axis_2">
    <g id="ytick_1">
     <g id="line2d_13">
      <defs>
       <path id="m68be1393fb" d="M 0 0 
L -3.5 0 
" style="stroke: #000000; stroke-width: 0.8"/>
      </defs>
      <g>
       <use xlink:href="#m68be1393fb" x="226.865625" y="429.706206" style="stroke: #000000; stroke-width: 0.8"/>
      </g>
     </g>
     <g id="text_8">
      <!-- epfl -->
      <g transform="translate(201.065625 433.505425) scale(0.1 -0.1)">
       <defs>
        <path id="DejaVuSans-70" d="M 1159 525 
L 1159 -1331 
L 581 -1331 
L 581 3500 
L 1159 3500 
L 1159 2969 
Q 1341 3281 1617 3432 
Q 1894 3584 2278 3584 
Q 2916 3584 3314 3078 
Q 3713 2572 3713 1747 
Q 3713 922 3314 415 
Q 2916 -91 2278 -91 
Q 1894 -91 1617 61 
Q 1341 213 1159 525 
z
M 3116 1747 
Q 3116 2381 2855 2742 
Q 2594 3103 2138 3103 
Q 1681 3103 1420 2742 
Q 1159 2381 1159 1747 
Q 1159 1113 1420 752 
Q 1681 391 2138 391 
Q 2594 391 2855 752 
Q 3116 1113 3116 1747 
z
" transform="scale(0.015625)"/>
        <path id="DejaVuSans-66" d="M 2375 4863 
L 2375 4384 
L 1825 4384 
Q 1516 4384 1395 4259 
Q 1275 4134 1275 3809 
L 1275 3500 
L 2222 3500 
L 2222 3053 
L 1275 3053 
L 1275 0 
L 697 0 
L 697 3053 
L 147 3053 
L 147 3500 
L 697 3500 
L 697 3744 
Q 697 4328 969 4595 
Q 1241 4863 1831 4863 
L 2375 4863 
z
" transform="scale(0.015625)"/>
        <path id="DejaVuSans-6c" d="M 603 4863 
L 1178 4863 
L 1178 0 
L 603 0 
L 603 4863 
z
" transform="scale(0.015625)"/>
       </defs>
       <use xlink:href="#DejaVuSans-65"/>
       <use xlink:href="#DejaVuSans-70" transform="translate(61.523438 0)"/>
       <use xlink:href="#DejaVuSans-66" transform="translate(125 0)"/>
       <use xlink:href="#DejaVuSans-6c" transform="translate(160.205078 0)"/>
      </g>
     </g>
    </g>
    <g id="ytick_2">
     <g id="line2d_14">
      <g>
       <use xlink:href="#m68be1393fb" x="226.865625" y="409.726408" style="stroke: #000000; stroke-width: 0.8"/>
      </g>
     </g>
     <g id="text_9">
      <!-- Peking University -->
      <g transform="translate(133.16875 413.525627) scale(0.1 -0.1)">
       <defs>
        <path id="DejaVuSans-50" d="M 1259 4147 
L 1259 2394 
L 2053 2394 
Q 2494 2394 2734 2622 
Q 2975 2850 2975 3272 
Q 2975 3691 2734 3919 
Q 2494 4147 2053 4147 
L 1259 4147 
z
M 628 4666 
L 2053 4666 
Q 2838 4666 3239 4311 
Q 3641 3956 3641 3272 
Q 3641 2581 3239 2228 
Q 2838 1875 2053 1875 
L 1259 1875 
L 1259 0 
L 628 0 
L 628 4666 
z
" transform="scale(0.015625)"/>
        <path id="DejaVuSans-6b" d="M 581 4863 
L 1159 4863 
L 1159 1991 
L 2875 3500 
L 3609 3500 
L 1753 1863 
L 3688 0 
L 2938 0 
L 1159 1709 
L 1159 0 
L 581 0 
L 581 4863 
z
" transform="scale(0.015625)"/>
        <path id="DejaVuSans-6e" d="M 3513 2113 
L 3513 0 
L 2938 0 
L 2938 2094 
Q 2938 2591 2744 2837 
Q 2550 3084 2163 3084 
Q 1697 3084 1428 2787 
Q 1159 2491 1159 1978 
L 1159 0 
L 581 0 
L 581 3500 
L 1159 3500 
L 1159 2956 
Q 1366 3272 1645 3428 
Q 1925 3584 2291 3584 
Q 2894 3584 3203 3211 
Q 3513 2838 3513 2113 
z
" transform="scale(0.015625)"/>
        <path id="DejaVuSans-67" d="M 2906 1791 
Q 2906 2416 2648 2759 
Q 2391 3103 1925 3103 
Q 1463 3103 1205 2759 
Q 947 2416 947 1791 
Q 947 1169 1205 825 
Q 1463 481 1925 481 
Q 2391 481 2648 825 
Q 2906 1169 2906 1791 
z
M 3481 434 
Q 3481 -459 3084 -895 
Q 2688 -1331 1869 -1331 
Q 1566 -1331 1297 -1286 
Q 1028 -1241 775 -1147 
L 775 -588 
Q 1028 -725 1275 -790 
Q 1522 -856 1778 -856 
Q 2344 -856 2625 -561 
Q 2906 -266 2906 331 
L 2906 616 
Q 2728 306 2450 153 
Q 2172 0 1784 0 
Q 1141 0 747 490 
Q 353 981 353 1791 
Q 353 2603 747 3093 
Q 1141 3584 1784 3584 
Q 2172 3584 2450 3431 
Q 2728 3278 2906 2969 
L 2906 3500 
L 3481 3500 
L 3481 434 
z
" transform="scale(0.015625)"/>
        <path id="DejaVuSans-55" d="M 556 4666 
L 1191 4666 
L 1191 1831 
Q 1191 1081 1462 751 
Q 1734 422 2344 422 
Q 2950 422 3222 751 
Q 3494 1081 3494 1831 
L 3494 4666 
L 4128 4666 
L 4128 1753 
Q 4128 841 3676 375 
Q 3225 -91 2344 -91 
Q 1459 -91 1007 375 
Q 556 841 556 1753 
L 556 4666 
z
" transform="scale(0.015625)"/>
        <path id="DejaVuSans-76" d="M 191 3500 
L 800 3500 
L 1894 563 
L 2988 3500 
L 3597 3500 
L 2284 0 
L 1503 0 
L 191 3500 
z
" transform="scale(0.015625)"/>
        <path id="DejaVuSans-79" d="M 2059 -325 
Q 1816 -950 1584 -1140 
Q 1353 -1331 966 -1331 
L 506 -1331 
L 506 -850 
L 844 -850 
Q 1081 -850 1212 -737 
Q 1344 -625 1503 -206 
L 1606 56 
L 191 3500 
L 800 3500 
L 1894 763 
L 2988 3500 
L 3597 3500 
L 2059 -325 
z
" transform="scale(0.015625)"/>
       </defs>
       <use xlink:href="#DejaVuSans-50"/>
       <use xlink:href="#DejaVuSans-65" transform="translate(56.677734 0)"/>
       <use xlink:href="#DejaVuSans-6b" transform="translate(118.201172 0)"/>
       <use xlink:href="#DejaVuSans-69" transform="translate(176.111328 0)"/>
       <use xlink:href="#DejaVuSans-6e" transform="translate(203.894531 0)"/>
       <use xlink:href="#DejaVuSans-67" transform="translate(267.273438 0)"/>
       <use xlink:href="#DejaVuSans-20" transform="translate(330.75 0)"/>
       <use xlink:href="#DejaVuSans-55" transform="translate(362.537109 0)"/>
       <use xlink:href="#DejaVuSans-6e" transform="translate(435.730469 0)"/>
       <use xlink:href="#DejaVuSans-69" transform="translate(499.109375 0)"/>
       <use xlink:href="#DejaVuSans-76" transform="translate(526.892578 0)"/>
       <use xlink:href="#DejaVuSans-65" transform="translate(586.072266 0)"/>
       <use xlink:href="#DejaVuSans-72" transform="translate(647.595703 0)"/>
       <use xlink:href="#DejaVuSans-73" transform="translate(688.708984 0)"/>
       <use xlink:href="#DejaVuSans-69" transform="translate(740.808594 0)"/>
       <use xlink:href="#DejaVuSans-74" transform="translate(768.591797 0)"/>
       <use xlink:href="#DejaVuSans-79" transform="translate(807.800781 0)"/>
      </g>
     </g>
    </g>
    <g id="ytick_3">
     <g id="line2d_15">
      <g>
       <use xlink:href="#m68be1393fb" x="226.865625" y="389.74661" style="stroke: #000000; stroke-width: 0.8"/>
      </g>
     </g>
     <g id="text_10">
      <!-- imec-distrinet, ku leuven -->
      <g transform="translate(95.503125 393.545829) scale(0.1 -0.1)">
       <defs>
        <path id="DejaVuSans-63" d="M 3122 3366 
L 3122 2828 
Q 2878 2963 2633 3030 
Q 2388 3097 2138 3097 
Q 1578 3097 1268 2742 
Q 959 2388 959 1747 
Q 959 1106 1268 751 
Q 1578 397 2138 397 
Q 2388 397 2633 464 
Q 2878 531 3122 666 
L 3122 134 
Q 2881 22 2623 -34 
Q 2366 -91 2075 -91 
Q 1284 -91 818 406 
Q 353 903 353 1747 
Q 353 2603 823 3093 
Q 1294 3584 2113 3584 
Q 2378 3584 2631 3529 
Q 2884 3475 3122 3366 
z
" transform="scale(0.015625)"/>
        <path id="DejaVuSans-2d" d="M 313 2009 
L 1997 2009 
L 1997 1497 
L 313 1497 
L 313 2009 
z
" transform="scale(0.015625)"/>
        <path id="DejaVuSans-64" d="M 2906 2969 
L 2906 4863 
L 3481 4863 
L 3481 0 
L 2906 0 
L 2906 525 
Q 2725 213 2448 61 
Q 2172 -91 1784 -91 
Q 1150 -91 751 415 
Q 353 922 353 1747 
Q 353 2572 751 3078 
Q 1150 3584 1784 3584 
Q 2172 3584 2448 3432 
Q 2725 3281 2906 2969 
z
M 947 1747 
Q 947 1113 1208 752 
Q 1469 391 1925 391 
Q 2381 391 2643 752 
Q 2906 1113 2906 1747 
Q 2906 2381 2643 2742 
Q 2381 3103 1925 3103 
Q 1469 3103 1208 2742 
Q 947 2381 947 1747 
z
" transform="scale(0.015625)"/>
        <path id="DejaVuSans-2c" d="M 750 794 
L 1409 794 
L 1409 256 
L 897 -744 
L 494 -744 
L 750 256 
L 750 794 
z
" transform="scale(0.015625)"/>
        <path id="DejaVuSans-75" d="M 544 1381 
L 544 3500 
L 1119 3500 
L 1119 1403 
Q 1119 906 1312 657 
Q 1506 409 1894 409 
Q 2359 409 2629 706 
Q 2900 1003 2900 1516 
L 2900 3500 
L 3475 3500 
L 3475 0 
L 2900 0 
L 2900 538 
Q 2691 219 2414 64 
Q 2138 -91 1772 -91 
Q 1169 -91 856 284 
Q 544 659 544 1381 
z
M 1991 3584 
L 1991 3584 
z
" transform="scale(0.015625)"/>
       </defs>
       <use xlink:href="#DejaVuSans-69"/>
       <use xlink:href="#DejaVuSans-6d" transform="translate(27.783203 0)"/>
       <use xlink:href="#DejaVuSans-65" transform="translate(125.195312 0)"/>
       <use xlink:href="#DejaVuSans-63" transform="translate(186.71875 0)"/>
       <use xlink:href="#DejaVuSans-2d" transform="translate(241.699219 0)"/>
       <use xlink:href="#DejaVuSans-64" transform="translate(277.783203 0)"/>
       <use xlink:href="#DejaVuSans-69" transform="translate(341.259766 0)"/>
       <use xlink:href="#DejaVuSans-73" transform="translate(369.042969 0)"/>
       <use xlink:href="#DejaVuSans-74" transform="translate(421.142578 0)"/>
       <use xlink:href="#DejaVuSans-72" transform="translate(460.351562 0)"/>
       <use xlink:href="#DejaVuSans-69" transform="translate(501.464844 0)"/>
       <use xlink:href="#DejaVuSans-6e" transform="translate(529.248047 0)"/>
       <use xlink:href="#DejaVuSans-65" transform="translate(592.626953 0)"/>
       <use xlink:href="#DejaVuSans-74" transform="translate(654.150391 0)"/>
       <use xlink:href="#DejaVuSans-2c" transform="translate(693.359375 0)"/>
       <use xlink:href="#DejaVuSans-20" transform="translate(725.146484 0)"/>
       <use xlink:href="#DejaVuSans-6b" transform="translate(756.933594 0)"/>
       <use xlink:href="#DejaVuSans-75" transform="translate(811.71875 0)"/>
       <use xlink:href="#DejaVuSans-20" transform="translate(875.097656 0)"/>
       <use xlink:href="#DejaVuSans-6c" transform="translate(906.884766 0)"/>
       <use xlink:href="#DejaVuSans-65" transform="translate(934.667969 0)"/>
       <use xlink:href="#DejaVuSans-75" transform="translate(996.191406 0)"/>
       <use xlink:href="#DejaVuSans-76" transform="translate(1059.570312 0)"/>
       <use xlink:href="#DejaVuSans-65" transform="translate(1118.75 0)"/>
       <use xlink:href="#DejaVuSans-6e" transform="translate(1180.273438 0)"/>
      </g>
     </g>
    </g>
    <g id="ytick_4">
     <g id="line2d_16">
      <g>
       <use xlink:href="#m68be1393fb" x="226.865625" y="369.766812" style="stroke: #000000; stroke-width: 0.8"/>
      </g>
     </g>
     <g id="text_11">
      <!-- Huazhong University of Science and Techn -->
      <g transform="translate(7.2 373.566031) scale(0.1 -0.1)">
       <defs>
        <path id="DejaVuSans-48" d="M 628 4666 
L 1259 4666 
L 1259 2753 
L 3553 2753 
L 3553 4666 
L 4184 4666 
L 4184 0 
L 3553 0 
L 3553 2222 
L 1259 2222 
L 1259 0 
L 628 0 
L 628 4666 
z
" transform="scale(0.015625)"/>
        <path id="DejaVuSans-61" d="M 2194 1759 
Q 1497 1759 1228 1600 
Q 959 1441 959 1056 
Q 959 750 1161 570 
Q 1363 391 1709 391 
Q 2188 391 2477 730 
Q 2766 1069 2766 1631 
L 2766 1759 
L 2194 1759 
z
M 3341 1997 
L 3341 0 
L 2766 0 
L 2766 531 
Q 2569 213 2275 61 
Q 1981 -91 1556 -91 
Q 1019 -91 701 211 
Q 384 513 384 1019 
Q 384 1609 779 1909 
Q 1175 2209 1959 2209 
L 2766 2209 
L 2766 2266 
Q 2766 2663 2505 2880 
Q 2244 3097 1772 3097 
Q 1472 3097 1187 3025 
Q 903 2953 641 2809 
L 641 3341 
Q 956 3463 1253 3523 
Q 1550 3584 1831 3584 
Q 2591 3584 2966 3190 
Q 3341 2797 3341 1997 
z
" transform="scale(0.015625)"/>
        <path id="DejaVuSans-7a" d="M 353 3500 
L 3084 3500 
L 3084 2975 
L 922 459 
L 3084 459 
L 3084 0 
L 275 0 
L 275 525 
L 2438 3041 
L 353 3041 
L 353 3500 
z
" transform="scale(0.015625)"/>
        <path id="DejaVuSans-68" d="M 3513 2113 
L 3513 0 
L 2938 0 
L 2938 2094 
Q 2938 2591 2744 2837 
Q 2550 3084 2163 3084 
Q 1697 3084 1428 2787 
Q 1159 2491 1159 1978 
L 1159 0 
L 581 0 
L 581 4863 
L 1159 4863 
L 1159 2956 
Q 1366 3272 1645 3428 
Q 1925 3584 2291 3584 
Q 2894 3584 3203 3211 
Q 3513 2838 3513 2113 
z
" transform="scale(0.015625)"/>
        <path id="DejaVuSans-53" d="M 3425 4513 
L 3425 3897 
Q 3066 4069 2747 4153 
Q 2428 4238 2131 4238 
Q 1616 4238 1336 4038 
Q 1056 3838 1056 3469 
Q 1056 3159 1242 3001 
Q 1428 2844 1947 2747 
L 2328 2669 
Q 3034 2534 3370 2195 
Q 3706 1856 3706 1288 
Q 3706 609 3251 259 
Q 2797 -91 1919 -91 
Q 1588 -91 1214 -16 
Q 841 59 441 206 
L 441 856 
Q 825 641 1194 531 
Q 1563 422 1919 422 
Q 2459 422 2753 634 
Q 3047 847 3047 1241 
Q 3047 1584 2836 1778 
Q 2625 1972 2144 2069 
L 1759 2144 
Q 1053 2284 737 2584 
Q 422 2884 422 3419 
Q 422 4038 858 4394 
Q 1294 4750 2059 4750 
Q 2388 4750 2728 4690 
Q 3069 4631 3425 4513 
z
" transform="scale(0.015625)"/>
        <path id="DejaVuSans-54" d="M -19 4666 
L 3928 4666 
L 3928 4134 
L 2272 4134 
L 2272 0 
L 1638 0 
L 1638 4134 
L -19 4134 
L -19 4666 
z
" transform="scale(0.015625)"/>
       </defs>
       <use xlink:href="#DejaVuSans-48"/>
       <use xlink:href="#DejaVuSans-75" transform="translate(75.195312 0)"/>
       <use xlink:href="#DejaVuSans-61" transform="translate(138.574219 0)"/>
       <use xlink:href="#DejaVuSans-7a" transform="translate(199.853516 0)"/>
       <use xlink:href="#DejaVuSans-68" transform="translate(252.34375 0)"/>
       <use xlink:href="#DejaVuSans-6f" transform="translate(315.722656 0)"/>
       <use xlink:href="#DejaVuSans-6e" transform="translate(376.904297 0)"/>
       <use xlink:href="#DejaVuSans-67" transform="translate(440.283203 0)"/>
       <use xlink:href="#DejaVuSans-20" transform="translate(503.759766 0)"/>
       <use xlink:href="#DejaVuSans-55" transform="translate(535.546875 0)"/>
       <use xlink:href="#DejaVuSans-6e" transform="translate(608.740234 0)"/>
       <use xlink:href="#DejaVuSans-69" transform="translate(672.119141 0)"/>
       <use xlink:href="#DejaVuSans-76" transform="translate(699.902344 0)"/>
       <use xlink:href="#DejaVuSans-65" transform="translate(759.082031 0)"/>
       <use xlink:href="#DejaVuSans-72" transform="translate(820.605469 0)"/>
       <use xlink:href="#DejaVuSans-73" transform="translate(861.71875 0)"/>
       <use xlink:href="#DejaVuSans-69" transform="translate(913.818359 0)"/>
       <use xlink:href="#DejaVuSans-74" transform="translate(941.601562 0)"/>
       <use xlink:href="#DejaVuSans-79" transform="translate(980.810547 0)"/>
       <use xlink:href="#DejaVuSans-20" transform="translate(1039.990234 0)"/>
       <use xlink:href="#DejaVuSans-6f" transform="translate(1071.777344 0)"/>
       <use xlink:href="#DejaVuSans-66" transform="translate(1132.958984 0)"/>
       <use xlink:href="#DejaVuSans-20" transform="translate(1168.164062 0)"/>
       <use xlink:href="#DejaVuSans-53" transform="translate(1199.951172 0)"/>
       <use xlink:href="#DejaVuSans-63" transform="translate(1263.427734 0)"/>
       <use xlink:href="#DejaVuSans-69" transform="translate(1318.408203 0)"/>
       <use xlink:href="#DejaVuSans-65" transform="translate(1346.191406 0)"/>
       <use xlink:href="#DejaVuSans-6e" transform="translate(1407.714844 0)"/>
       <use xlink:href="#DejaVuSans-63" transform="translate(1471.09375 0)"/>
       <use xlink:href="#DejaVuSans-65" transform="translate(1526.074219 0)"/>
       <use xlink:href="#DejaVuSans-20" transform="translate(1587.597656 0)"/>
       <use xlink:href="#DejaVuSans-61" transform="translate(1619.384766 0)"/>
       <use xlink:href="#DejaVuSans-6e" transform="translate(1680.664062 0)"/>
       <use xlink:href="#DejaVuSans-64" transform="translate(1744.042969 0)"/>
       <use xlink:href="#DejaVuSans-20" transform="translate(1807.519531 0)"/>
       <use xlink:href="#DejaVuSans-54" transform="translate(1839.306641 0)"/>
       <use xlink:href="#DejaVuSans-65" transform="translate(1883.390625 0)"/>
       <use xlink:href="#DejaVuSans-63" transform="translate(1944.914062 0)"/>
       <use xlink:href="#DejaVuSans-68" transform="translate(1999.894531 0)"/>
       <use xlink:href="#DejaVuSans-6e" transform="translate(2063.273438 0)"/>
      </g>
     </g>
    </g>
    <g id="ytick_5">
     <g id="line2d_17">
      <g>
       <use xlink:href="#m68be1393fb" x="226.865625" y="349.787014" style="stroke: #000000; stroke-width: 0.8"/>
      </g>
     </g>
     <g id="text_12">
      <!-- eth zurich -->
      <g transform="translate(169.965625 353.586233) scale(0.1 -0.1)">
       <use xlink:href="#DejaVuSans-65"/>
       <use xlink:href="#DejaVuSans-74" transform="translate(61.523438 0)"/>
       <use xlink:href="#DejaVuSans-68" transform="translate(100.732422 0)"/>
       <use xlink:href="#DejaVuSans-20" transform="translate(164.111328 0)"/>
       <use xlink:href="#DejaVuSans-7a" transform="translate(195.898438 0)"/>
       <use xlink:href="#DejaVuSans-75" transform="translate(248.388672 0)"/>
       <use xlink:href="#DejaVuSans-72" transform="translate(311.767578 0)"/>
       <use xlink:href="#DejaVuSans-69" transform="translate(352.880859 0)"/>
       <use xlink:href="#DejaVuSans-63" transform="translate(380.664062 0)"/>
       <use xlink:href="#DejaVuSans-68" transform="translate(435.644531 0)"/>
      </g>
     </g>
    </g>
    <g id="ytick_6">
     <g id="line2d_18">
      <g>
       <use xlink:href="#m68be1393fb" x="226.865625" y="329.807216" style="stroke: #000000; stroke-width: 0.8"/>
      </g>
     </g>
     <g id="text_13">
      <!-- google -->
      <g transform="translate(186 333.606435) scale(0.1 -0.1)">
       <use xlink:href="#DejaVuSans-67"/>
       <use xlink:href="#DejaVuSans-6f" transform="translate(63.476562 0)"/>
       <use xlink:href="#DejaVuSans-6f" transform="translate(124.658203 0)"/>
       <use xlink:href="#DejaVuSans-67" transform="translate(185.839844 0)"/>
       <use xlink:href="#DejaVuSans-6c" transform="translate(249.316406 0)"/>
       <use xlink:href="#DejaVuSans-65" transform="translate(277.099609 0)"/>
      </g>
     </g>
    </g>
    <g id="ytick_7">
     <g id="line2d_19">
      <g>
       <use xlink:href="#m68be1393fb" x="226.865625" y="309.827418" style="stroke: #000000; stroke-width: 0.8"/>
      </g>
     </g>
     <g id="text_14">
      <!-- Virginia Tech -->
      <g transform="translate(156.590625 313.626637) scale(0.1 -0.1)">
       <defs>
        <path id="DejaVuSans-56" d="M 1831 0 
L 50 4666 
L 709 4666 
L 2188 738 
L 3669 4666 
L 4325 4666 
L 2547 0 
L 1831 0 
z
" transform="scale(0.015625)"/>
       </defs>
       <use xlink:href="#DejaVuSans-56"/>
       <use xlink:href="#DejaVuSans-69" transform="translate(66.158203 0)"/>
       <use xlink:href="#DejaVuSans-72" transform="translate(93.941406 0)"/>
       <use xlink:href="#DejaVuSans-67" transform="translate(133.304688 0)"/>
       <use xlink:href="#DejaVuSans-69" transform="translate(196.78125 0)"/>
       <use xlink:href="#DejaVuSans-6e" transform="translate(224.564453 0)"/>
       <use xlink:href="#DejaVuSans-69" transform="translate(287.943359 0)"/>
       <use xlink:href="#DejaVuSans-61" transform="translate(315.726562 0)"/>
       <use xlink:href="#DejaVuSans-20" transform="translate(377.005859 0)"/>
       <use xlink:href="#DejaVuSans-54" transform="translate(408.792969 0)"/>
       <use xlink:href="#DejaVuSans-65" transform="translate(452.876953 0)"/>
       <use xlink:href="#DejaVuSans-63" transform="translate(514.400391 0)"/>
       <use xlink:href="#DejaVuSans-68" transform="translate(569.380859 0)"/>
      </g>
     </g>
    </g>
    <g id="ytick_8">
     <g id="line2d_20">
      <g>
       <use xlink:href="#m68be1393fb" x="226.865625" y="289.84762" style="stroke: #000000; stroke-width: 0.8"/>
      </g>
     </g>
     <g id="text_15">
      <!-- Carnegie Mellon University -->
      <g transform="translate(85.454687 293.646839) scale(0.1 -0.1)">
       <use xlink:href="#DejaVuSans-43"/>
       <use xlink:href="#DejaVuSans-61" transform="translate(69.824219 0)"/>
       <use xlink:href="#DejaVuSans-72" transform="translate(131.103516 0)"/>
       <use xlink:href="#DejaVuSans-6e" transform="translate(170.466797 0)"/>
       <use xlink:href="#DejaVuSans-65" transform="translate(233.845703 0)"/>
       <use xlink:href="#DejaVuSans-67" transform="translate(295.369141 0)"/>
       <use xlink:href="#DejaVuSans-69" transform="translate(358.845703 0)"/>
       <use xlink:href="#DejaVuSans-65" transform="translate(386.628906 0)"/>
       <use xlink:href="#DejaVuSans-20" transform="translate(448.152344 0)"/>
       <use xlink:href="#DejaVuSans-4d" transform="translate(479.939453 0)"/>
       <use xlink:href="#DejaVuSans-65" transform="translate(566.21875 0)"/>
       <use xlink:href="#DejaVuSans-6c" transform="translate(627.742188 0)"/>
       <use xlink:href="#DejaVuSans-6c" transform="translate(655.525391 0)"/>
       <use xlink:href="#DejaVuSans-6f" transform="translate(683.308594 0)"/>
       <use xlink:href="#DejaVuSans-6e" transform="translate(744.490234 0)"/>
       <use xlink:href="#DejaVuSans-20" transform="translate(807.869141 0)"/>
       <use xlink:href="#DejaVuSans-55" transform="translate(839.65625 0)"/>
       <use xlink:href="#DejaVuSans-6e" transform="translate(912.849609 0)"/>
       <use xlink:href="#DejaVuSans-69" transform="translate(976.228516 0)"/>
       <use xlink:href="#DejaVuSans-76" transform="translate(1004.011719 0)"/>
       <use xlink:href="#DejaVuSans-65" transform="translate(1063.191406 0)"/>
       <use xlink:href="#DejaVuSans-72" transform="translate(1124.714844 0)"/>
       <use xlink:href="#DejaVuSans-73" transform="translate(1165.828125 0)"/>
       <use xlink:href="#DejaVuSans-69" transform="translate(1217.927734 0)"/>
       <use xlink:href="#DejaVuSans-74" transform="translate(1245.710938 0)"/>
       <use xlink:href="#DejaVuSans-79" transform="translate(1284.919922 0)"/>
      </g>
     </g>
    </g>
    <g id="ytick_9">
     <g id="line2d_21">
      <g>
       <use xlink:href="#m68be1393fb" x="226.865625" y="269.867822" style="stroke: #000000; stroke-width: 0.8"/>
      </g>
     </g>
     <g id="text_16">
      <!-- University of Chicago -->
      <g transform="translate(113.234375 273.667041) scale(0.1 -0.1)">
       <use xlink:href="#DejaVuSans-55"/>
       <use xlink:href="#DejaVuSans-6e" transform="translate(73.193359 0)"/>
       <use xlink:href="#DejaVuSans-69" transform="translate(136.572266 0)"/>
       <use xlink:href="#DejaVuSans-76" transform="translate(164.355469 0)"/>
       <use xlink:href="#DejaVuSans-65" transform="translate(223.535156 0)"/>
       <use xlink:href="#DejaVuSans-72" transform="translate(285.058594 0)"/>
       <use xlink:href="#DejaVuSans-73" transform="translate(326.171875 0)"/>
       <use xlink:href="#DejaVuSans-69" transform="translate(378.271484 0)"/>
       <use xlink:href="#DejaVuSans-74" transform="translate(406.054688 0)"/>
       <use xlink:href="#DejaVuSans-79" transform="translate(445.263672 0)"/>
       <use xlink:href="#DejaVuSans-20" transform="translate(504.443359 0)"/>
       <use xlink:href="#DejaVuSans-6f" transform="translate(536.230469 0)"/>
       <use xlink:href="#DejaVuSans-66" transform="translate(597.412109 0)"/>
       <use xlink:href="#DejaVuSans-20" transform="translate(632.617188 0)"/>
       <use xlink:href="#DejaVuSans-43" transform="translate(664.404297 0)"/>
       <use xlink:href="#DejaVuSans-68" transform="translate(734.228516 0)"/>
       <use xlink:href="#DejaVuSans-69" transform="translate(797.607422 0)"/>
       <use xlink:href="#DejaVuSans-63" transform="translate(825.390625 0)"/>
       <use xlink:href="#DejaVuSans-61" transform="translate(880.371094 0)"/>
       <use xlink:href="#DejaVuSans-67" transform="translate(941.650391 0)"/>
       <use xlink:href="#DejaVuSans-6f" transform="translate(1005.126953 0)"/>
      </g>
     </g>
    </g>
    <g id="ytick_10">
     <g id="line2d_22">
      <g>
       <use xlink:href="#m68be1393fb" x="226.865625" y="249.888024" style="stroke: #000000; stroke-width: 0.8"/>
      </g>
     </g>
     <g id="text_17">
      <!-- computing and imaging institute - the un -->
      <g transform="translate(14.046875 253.687243) scale(0.1 -0.1)">
       <use xlink:href="#DejaVuSans-63"/>
       <use xlink:href="#DejaVuSans-6f" transform="translate(54.980469 0)"/>
       <use xlink:href="#DejaVuSans-6d" transform="translate(116.162109 0)"/>
       <use xlink:href="#DejaVuSans-70" transform="translate(213.574219 0)"/>
       <use xlink:href="#DejaVuSans-75" transform="translate(277.050781 0)"/>
       <use xlink:href="#DejaVuSans-74" transform="translate(340.429688 0)"/>
       <use xlink:href="#DejaVuSans-69" transform="translate(379.638672 0)"/>
       <use xlink:href="#DejaVuSans-6e" transform="translate(407.421875 0)"/>
       <use xlink:href="#DejaVuSans-67" transform="translate(470.800781 0)"/>
       <use xlink:href="#DejaVuSans-20" transform="translate(534.277344 0)"/>
       <use xlink:href="#DejaVuSans-61" transform="translate(566.064453 0)"/>
       <use xlink:href="#DejaVuSans-6e" transform="translate(627.34375 0)"/>
       <use xlink:href="#DejaVuSans-64" transform="translate(690.722656 0)"/>
       <use xlink:href="#DejaVuSans-20" transform="translate(754.199219 0)"/>
       <use xlink:href="#DejaVuSans-69" transform="translate(785.986328 0)"/>
       <use xlink:href="#DejaVuSans-6d" transform="translate(813.769531 0)"/>
       <use xlink:href="#DejaVuSans-61" transform="translate(911.181641 0)"/>
       <use xlink:href="#DejaVuSans-67" transform="translate(972.460938 0)"/>
       <use xlink:href="#DejaVuSans-69" transform="translate(1035.9375 0)"/>
       <use xlink:href="#DejaVuSans-6e" transform="translate(1063.720703 0)"/>
       <use xlink:href="#DejaVuSans-67" transform="translate(1127.099609 0)"/>
       <use xlink:href="#DejaVuSans-20" transform="translate(1190.576172 0)"/>
       <use xlink:href="#DejaVuSans-69" transform="translate(1222.363281 0)"/>
       <use xlink:href="#DejaVuSans-6e" transform="translate(1250.146484 0)"/>
       <use xlink:href="#DejaVuSans-73" transform="translate(1313.525391 0)"/>
       <use xlink:href="#DejaVuSans-74" transform="translate(1365.625 0)"/>
       <use xlink:href="#DejaVuSans-69" transform="translate(1404.833984 0)"/>
       <use xlink:href="#DejaVuSans-74" transform="translate(1432.617188 0)"/>
       <use xlink:href="#DejaVuSans-75" transform="translate(1471.826172 0)"/>
       <use xlink:href="#DejaVuSans-74" transform="translate(1535.205078 0)"/>
       <use xlink:href="#DejaVuSans-65" transform="translate(1574.414062 0)"/>
       <use xlink:href="#DejaVuSans-20" transform="translate(1635.9375 0)"/>
       <use xlink:href="#DejaVuSans-2d" transform="translate(1667.724609 0)"/>
       <use xlink:href="#DejaVuSans-20" transform="translate(1703.808594 0)"/>
       <use xlink:href="#DejaVuSans-74" transform="translate(1735.595703 0)"/>
       <use xlink:href="#DejaVuSans-68" transform="translate(1774.804688 0)"/>
       <use xlink:href="#DejaVuSans-65" transform="translate(1838.183594 0)"/>
       <use xlink:href="#DejaVuSans-20" transform="translate(1899.707031 0)"/>
       <use xlink:href="#DejaVuSans-75" transform="translate(1931.494141 0)"/>
       <use xlink:href="#DejaVuSans-6e" transform="translate(1994.873047 0)"/>
      </g>
     </g>
    </g>
    <g id="ytick_11">
     <g id="line2d_23">
      <g>
       <use xlink:href="#m68be1393fb" x="226.865625" y="229.908226" style="stroke: #000000; stroke-width: 0.8"/>
      </g>
     </g>
     <g id="text_18">
      <!-- The Hong Kong University of Science and  -->
      <g transform="translate(10.16875 233.707445) scale(0.1 -0.1)">
       <defs>
        <path id="DejaVuSans-4b" d="M 628 4666 
L 1259 4666 
L 1259 2694 
L 3353 4666 
L 4166 4666 
L 1850 2491 
L 4331 0 
L 3500 0 
L 1259 2247 
L 1259 0 
L 628 0 
L 628 4666 
z
" transform="scale(0.015625)"/>
       </defs>
       <use xlink:href="#DejaVuSans-54"/>
       <use xlink:href="#DejaVuSans-68" transform="translate(61.083984 0)"/>
       <use xlink:href="#DejaVuSans-65" transform="translate(124.462891 0)"/>
       <use xlink:href="#DejaVuSans-20" transform="translate(185.986328 0)"/>
       <use xlink:href="#DejaVuSans-48" transform="translate(217.773438 0)"/>
       <use xlink:href="#DejaVuSans-6f" transform="translate(292.96875 0)"/>
       <use xlink:href="#DejaVuSans-6e" transform="translate(354.150391 0)"/>
       <use xlink:href="#DejaVuSans-67" transform="translate(417.529297 0)"/>
       <use xlink:href="#DejaVuSans-20" transform="translate(481.005859 0)"/>
       <use xlink:href="#DejaVuSans-4b" transform="translate(512.792969 0)"/>
       <use xlink:href="#DejaVuSans-6f" transform="translate(573.369141 0)"/>
       <use xlink:href="#DejaVuSans-6e" transform="translate(634.550781 0)"/>
       <use xlink:href="#DejaVuSans-67" transform="translate(697.929688 0)"/>
       <use xlink:href="#DejaVuSans-20" transform="translate(761.40625 0)"/>
       <use xlink:href="#DejaVuSans-55" transform="translate(793.193359 0)"/>
       <use xlink:href="#DejaVuSans-6e" transform="translate(866.386719 0)"/>
       <use xlink:href="#DejaVuSans-69" transform="translate(929.765625 0)"/>
       <use xlink:href="#DejaVuSans-76" transform="translate(957.548828 0)"/>
       <use xlink:href="#DejaVuSans-65" transform="translate(1016.728516 0)"/>
       <use xlink:href="#DejaVuSans-72" transform="translate(1078.251953 0)"/>
       <use xlink:href="#DejaVuSans-73" transform="translate(1119.365234 0)"/>
       <use xlink:href="#DejaVuSans-69" transform="translate(1171.464844 0)"/>
       <use xlink:href="#DejaVuSans-74" transform="translate(1199.248047 0)"/>
       <use xlink:href="#DejaVuSans-79" transform="translate(1238.457031 0)"/>
       <use xlink:href="#DejaVuSans-20" transform="translate(1297.636719 0)"/>
       <use xlink:href="#DejaVuSans-6f" transform="translate(1329.423828 0)"/>
       <use xlink:href="#DejaVuSans-66" transform="translate(1390.605469 0)"/>
       <use xlink:href="#DejaVuSans-20" transform="translate(1425.810547 0)"/>
       <use xlink:href="#DejaVuSans-53" transform="translate(1457.597656 0)"/>
       <use xlink:href="#DejaVuSans-63" transform="translate(1521.074219 0)"/>
       <use xlink:href="#DejaVuSans-69" transform="translate(1576.054688 0)"/>
       <use xlink:href="#DejaVuSans-65" transform="translate(1603.837891 0)"/>
       <use xlink:href="#DejaVuSans-6e" transform="translate(1665.361328 0)"/>
       <use xlink:href="#DejaVuSans-63" transform="translate(1728.740234 0)"/>
       <use xlink:href="#DejaVuSans-65" transform="translate(1783.720703 0)"/>
       <use xlink:href="#DejaVuSans-20" transform="translate(1845.244141 0)"/>
       <use xlink:href="#DejaVuSans-61" transform="translate(1877.03125 0)"/>
       <use xlink:href="#DejaVuSans-6e" transform="translate(1938.310547 0)"/>
       <use xlink:href="#DejaVuSans-64" transform="translate(2001.689453 0)"/>
       <use xlink:href="#DejaVuSans-20" transform="translate(2065.166016 0)"/>
      </g>
     </g>
    </g>
    <g id="ytick_12">
     <g id="line2d_24">
      <g>
       <use xlink:href="#m68be1393fb" x="226.865625" y="209.928428" style="stroke: #000000; stroke-width: 0.8"/>
      </g>
     </g>
     <g id="text_19">
      <!-- University of Michigan - Ann Arbor -->
      <g transform="translate(48.404687 213.727647) scale(0.1 -0.1)">
       <defs>
        <path id="DejaVuSans-41" d="M 2188 4044 
L 1331 1722 
L 3047 1722 
L 2188 4044 
z
M 1831 4666 
L 2547 4666 
L 4325 0 
L 3669 0 
L 3244 1197 
L 1141 1197 
L 716 0 
L 50 0 
L 1831 4666 
z
" transform="scale(0.015625)"/>
       </defs>
       <use xlink:href="#DejaVuSans-55"/>
       <use xlink:href="#DejaVuSans-6e" transform="translate(73.193359 0)"/>
       <use xlink:href="#DejaVuSans-69" transform="translate(136.572266 0)"/>
       <use xlink:href="#DejaVuSans-76" transform="translate(164.355469 0)"/>
       <use xlink:href="#DejaVuSans-65" transform="translate(223.535156 0)"/>
       <use xlink:href="#DejaVuSans-72" transform="translate(285.058594 0)"/>
       <use xlink:href="#DejaVuSans-73" transform="translate(326.171875 0)"/>
       <use xlink:href="#DejaVuSans-69" transform="translate(378.271484 0)"/>
       <use xlink:href="#DejaVuSans-74" transform="translate(406.054688 0)"/>
       <use xlink:href="#DejaVuSans-79" transform="translate(445.263672 0)"/>
       <use xlink:href="#DejaVuSans-20" transform="translate(504.443359 0)"/>
       <use xlink:href="#DejaVuSans-6f" transform="translate(536.230469 0)"/>
       <use xlink:href="#DejaVuSans-66" transform="translate(597.412109 0)"/>
       <use xlink:href="#DejaVuSans-20" transform="translate(632.617188 0)"/>
       <use xlink:href="#DejaVuSans-4d" transform="translate(664.404297 0)"/>
       <use xlink:href="#DejaVuSans-69" transform="translate(750.683594 0)"/>
       <use xlink:href="#DejaVuSans-63" transform="translate(778.466797 0)"/>
       <use xlink:href="#DejaVuSans-68" transform="translate(833.447266 0)"/>
       <use xlink:href="#DejaVuSans-69" transform="translate(896.826172 0)"/>
       <use xlink:href="#DejaVuSans-67" transform="translate(924.609375 0)"/>
       <use xlink:href="#DejaVuSans-61" transform="translate(988.085938 0)"/>
       <use xlink:href="#DejaVuSans-6e" transform="translate(1049.365234 0)"/>
       <use xlink:href="#DejaVuSans-20" transform="translate(1112.744141 0)"/>
       <use xlink:href="#DejaVuSans-2d" transform="translate(1144.53125 0)"/>
       <use xlink:href="#DejaVuSans-20" transform="translate(1180.615234 0)"/>
       <use xlink:href="#DejaVuSans-41" transform="translate(1212.402344 0)"/>
       <use xlink:href="#DejaVuSans-6e" transform="translate(1280.810547 0)"/>
       <use xlink:href="#DejaVuSans-6e" transform="translate(1344.189453 0)"/>
       <use xlink:href="#DejaVuSans-20" transform="translate(1407.568359 0)"/>
       <use xlink:href="#DejaVuSans-41" transform="translate(1439.355469 0)"/>
       <use xlink:href="#DejaVuSans-72" transform="translate(1507.763672 0)"/>
       <use xlink:href="#DejaVuSans-62" transform="translate(1548.876953 0)"/>
       <use xlink:href="#DejaVuSans-6f" transform="translate(1612.353516 0)"/>
       <use xlink:href="#DejaVuSans-72" transform="translate(1673.535156 0)"/>
      </g>
     </g>
    </g>
    <g id="ytick_13">
     <g id="line2d_25">
      <g>
       <use xlink:href="#m68be1393fb" x="226.865625" y="189.94863" style="stroke: #000000; stroke-width: 0.8"/>
      </g>
     </g>
     <g id="text_20">
      <!-- institute of parallel and distributed sy -->
      <g transform="translate(31.582812 193.747849) scale(0.1 -0.1)">
       <use xlink:href="#DejaVuSans-69"/>
       <use xlink:href="#DejaVuSans-6e" transform="translate(27.783203 0)"/>
       <use xlink:href="#DejaVuSans-73" transform="translate(91.162109 0)"/>
       <use xlink:href="#DejaVuSans-74" transform="translate(143.261719 0)"/>
       <use xlink:href="#DejaVuSans-69" transform="translate(182.470703 0)"/>
       <use xlink:href="#DejaVuSans-74" transform="translate(210.253906 0)"/>
       <use xlink:href="#DejaVuSans-75" transform="translate(249.462891 0)"/>
       <use xlink:href="#DejaVuSans-74" transform="translate(312.841797 0)"/>
       <use xlink:href="#DejaVuSans-65" transform="translate(352.050781 0)"/>
       <use xlink:href="#DejaVuSans-20" transform="translate(413.574219 0)"/>
       <use xlink:href="#DejaVuSans-6f" transform="translate(445.361328 0)"/>
       <use xlink:href="#DejaVuSans-66" transform="translate(506.542969 0)"/>
       <use xlink:href="#DejaVuSans-20" transform="translate(541.748047 0)"/>
       <use xlink:href="#DejaVuSans-70" transform="translate(573.535156 0)"/>
       <use xlink:href="#DejaVuSans-61" transform="translate(637.011719 0)"/>
       <use xlink:href="#DejaVuSans-72" transform="translate(698.291016 0)"/>
       <use xlink:href="#DejaVuSans-61" transform="translate(739.404297 0)"/>
       <use xlink:href="#DejaVuSans-6c" transform="translate(800.683594 0)"/>
       <use xlink:href="#DejaVuSans-6c" transform="translate(828.466797 0)"/>
       <use xlink:href="#DejaVuSans-65" transform="translate(856.25 0)"/>
       <use xlink:href="#DejaVuSans-6c" transform="translate(917.773438 0)"/>
       <use xlink:href="#DejaVuSans-20" transform="translate(945.556641 0)"/>
       <use xlink:href="#DejaVuSans-61" transform="translate(977.34375 0)"/>
       <use xlink:href="#DejaVuSans-6e" transform="translate(1038.623047 0)"/>
       <use xlink:href="#DejaVuSans-64" transform="translate(1102.001953 0)"/>
       <use xlink:href="#DejaVuSans-20" transform="translate(1165.478516 0)"/>
       <use xlink:href="#DejaVuSans-64" transform="translate(1197.265625 0)"/>
       <use xlink:href="#DejaVuSans-69" transform="translate(1260.742188 0)"/>
       <use xlink:href="#DejaVuSans-73" transform="translate(1288.525391 0)"/>
       <use xlink:href="#DejaVuSans-74" transform="translate(1340.625 0)"/>
       <use xlink:href="#DejaVuSans-72" transform="translate(1379.833984 0)"/>
       <use xlink:href="#DejaVuSans-69" transform="translate(1420.947266 0)"/>
       <use xlink:href="#DejaVuSans-62" transform="translate(1448.730469 0)"/>
       <use xlink:href="#DejaVuSans-75" transform="translate(1512.207031 0)"/>
       <use xlink:href="#DejaVuSans-74" transform="translate(1575.585938 0)"/>
       <use xlink:href="#DejaVuSans-65" transform="translate(1614.794922 0)"/>
       <use xlink:href="#DejaVuSans-64" transform="translate(1676.318359 0)"/>
       <use xlink:href="#DejaVuSans-20" transform="translate(1739.794922 0)"/>
       <use xlink:href="#DejaVuSans-73" transform="translate(1771.582031 0)"/>
       <use xlink:href="#DejaVuSans-79" transform="translate(1823.681641 0)"/>
      </g>
     </g>
    </g>
    <g id="ytick_14">
     <g id="line2d_26">
      <g>
       <use xlink:href="#m68be1393fb" x="226.865625" y="169.968832" style="stroke: #000000; stroke-width: 0.8"/>
      </g>
     </g>
     <g id="text_21">
      <!-- Georgia Institute of Technology -->
      <g transform="translate(63.9375 173.768051) scale(0.1 -0.1)">
       <defs>
        <path id="DejaVuSans-47" d="M 3809 666 
L 3809 1919 
L 2778 1919 
L 2778 2438 
L 4434 2438 
L 4434 434 
Q 4069 175 3628 42 
Q 3188 -91 2688 -91 
Q 1594 -91 976 548 
Q 359 1188 359 2328 
Q 359 3472 976 4111 
Q 1594 4750 2688 4750 
Q 3144 4750 3555 4637 
Q 3966 4525 4313 4306 
L 4313 3634 
Q 3963 3931 3569 4081 
Q 3175 4231 2741 4231 
Q 1884 4231 1454 3753 
Q 1025 3275 1025 2328 
Q 1025 1384 1454 906 
Q 1884 428 2741 428 
Q 3075 428 3337 486 
Q 3600 544 3809 666 
z
" transform="scale(0.015625)"/>
        <path id="DejaVuSans-49" d="M 628 4666 
L 1259 4666 
L 1259 0 
L 628 0 
L 628 4666 
z
" transform="scale(0.015625)"/>
       </defs>
       <use xlink:href="#DejaVuSans-47"/>
       <use xlink:href="#DejaVuSans-65" transform="translate(77.490234 0)"/>
       <use xlink:href="#DejaVuSans-6f" transform="translate(139.013672 0)"/>
       <use xlink:href="#DejaVuSans-72" transform="translate(200.195312 0)"/>
       <use xlink:href="#DejaVuSans-67" transform="translate(239.558594 0)"/>
       <use xlink:href="#DejaVuSans-69" transform="translate(303.035156 0)"/>
       <use xlink:href="#DejaVuSans-61" transform="translate(330.818359 0)"/>
       <use xlink:href="#DejaVuSans-20" transform="translate(392.097656 0)"/>
       <use xlink:href="#DejaVuSans-49" transform="translate(423.884766 0)"/>
       <use xlink:href="#DejaVuSans-6e" transform="translate(453.376953 0)"/>
       <use xlink:href="#DejaVuSans-73" transform="translate(516.755859 0)"/>
       <use xlink:href="#DejaVuSans-74" transform="translate(568.855469 0)"/>
       <use xlink:href="#DejaVuSans-69" transform="translate(608.064453 0)"/>
       <use xlink:href="#DejaVuSans-74" transform="translate(635.847656 0)"/>
       <use xlink:href="#DejaVuSans-75" transform="translate(675.056641 0)"/>
       <use xlink:href="#DejaVuSans-74" transform="translate(738.435547 0)"/>
       <use xlink:href="#DejaVuSans-65" transform="translate(777.644531 0)"/>
       <use xlink:href="#DejaVuSans-20" transform="translate(839.167969 0)"/>
       <use xlink:href="#DejaVuSans-6f" transform="translate(870.955078 0)"/>
       <use xlink:href="#DejaVuSans-66" transform="translate(932.136719 0)"/>
       <use xlink:href="#DejaVuSans-20" transform="translate(967.341797 0)"/>
       <use xlink:href="#DejaVuSans-54" transform="translate(999.128906 0)"/>
       <use xlink:href="#DejaVuSans-65" transform="translate(1043.212891 0)"/>
       <use xlink:href="#DejaVuSans-63" transform="translate(1104.736328 0)"/>
       <use xlink:href="#DejaVuSans-68" transform="translate(1159.716797 0)"/>
       <use xlink:href="#DejaVuSans-6e" transform="translate(1223.095703 0)"/>
       <use xlink:href="#DejaVuSans-6f" transform="translate(1286.474609 0)"/>
       <use xlink:href="#DejaVuSans-6c" transform="translate(1347.65625 0)"/>
       <use xlink:href="#DejaVuSans-6f" transform="translate(1375.439453 0)"/>
       <use xlink:href="#DejaVuSans-67" transform="translate(1436.621094 0)"/>
       <use xlink:href="#DejaVuSans-79" transform="translate(1500.097656 0)"/>
      </g>
     </g>
    </g>
    <g id="ytick_15">
     <g id="line2d_27">
      <g>
       <use xlink:href="#m68be1393fb" x="226.865625" y="149.989034" style="stroke: #000000; stroke-width: 0.8"/>
      </g>
     </g>
     <g id="text_22">
      <!-- cispa helmholtz center for information s -->
      <g transform="translate(19.753125 153.788253) scale(0.1 -0.1)">
       <use xlink:href="#DejaVuSans-63"/>
       <use xlink:href="#DejaVuSans-69" transform="translate(54.980469 0)"/>
       <use xlink:href="#DejaVuSans-73" transform="translate(82.763672 0)"/>
       <use xlink:href="#DejaVuSans-70" transform="translate(134.863281 0)"/>
       <use xlink:href="#DejaVuSans-61" transform="translate(198.339844 0)"/>
       <use xlink:href="#DejaVuSans-20" transform="translate(259.619141 0)"/>
       <use xlink:href="#DejaVuSans-68" transform="translate(291.40625 0)"/>
       <use xlink:href="#DejaVuSans-65" transform="translate(354.785156 0)"/>
       <use xlink:href="#DejaVuSans-6c" transform="translate(416.308594 0)"/>
       <use xlink:href="#DejaVuSans-6d" transform="translate(444.091797 0)"/>
       <use xlink:href="#DejaVuSans-68" transform="translate(541.503906 0)"/>
       <use xlink:href="#DejaVuSans-6f" transform="translate(604.882812 0)"/>
       <use xlink:href="#DejaVuSans-6c" transform="translate(666.064453 0)"/>
       <use xlink:href="#DejaVuSans-74" transform="translate(693.847656 0)"/>
       <use xlink:href="#DejaVuSans-7a" transform="translate(733.056641 0)"/>
       <use xlink:href="#DejaVuSans-20" transform="translate(785.546875 0)"/>
       <use xlink:href="#DejaVuSans-63" transform="translate(817.333984 0)"/>
       <use xlink:href="#DejaVuSans-65" transform="translate(872.314453 0)"/>
       <use xlink:href="#DejaVuSans-6e" transform="translate(933.837891 0)"/>
       <use xlink:href="#DejaVuSans-74" transform="translate(997.216797 0)"/>
       <use xlink:href="#DejaVuSans-65" transform="translate(1036.425781 0)"/>
       <use xlink:href="#DejaVuSans-72" transform="translate(1097.949219 0)"/>
       <use xlink:href="#DejaVuSans-20" transform="translate(1139.0625 0)"/>
       <use xlink:href="#DejaVuSans-66" transform="translate(1170.849609 0)"/>
       <use xlink:href="#DejaVuSans-6f" transform="translate(1206.054688 0)"/>
       <use xlink:href="#DejaVuSans-72" transform="translate(1267.236328 0)"/>
       <use xlink:href="#DejaVuSans-20" transform="translate(1308.349609 0)"/>
       <use xlink:href="#DejaVuSans-69" transform="translate(1340.136719 0)"/>
       <use xlink:href="#DejaVuSans-6e" transform="translate(1367.919922 0)"/>
       <use xlink:href="#DejaVuSans-66" transform="translate(1431.298828 0)"/>
       <use xlink:href="#DejaVuSans-6f" transform="translate(1466.503906 0)"/>
       <use xlink:href="#DejaVuSans-72" transform="translate(1527.685547 0)"/>
       <use xlink:href="#DejaVuSans-6d" transform="translate(1567.048828 0)"/>
       <use xlink:href="#DejaVuSans-61" transform="translate(1664.460938 0)"/>
       <use xlink:href="#DejaVuSans-74" transform="translate(1725.740234 0)"/>
       <use xlink:href="#DejaVuSans-69" transform="translate(1764.949219 0)"/>
       <use xlink:href="#DejaVuSans-6f" transform="translate(1792.732422 0)"/>
       <use xlink:href="#DejaVuSans-6e" transform="translate(1853.914062 0)"/>
       <use xlink:href="#DejaVuSans-20" transform="translate(1917.292969 0)"/>
       <use xlink:href="#DejaVuSans-73" transform="translate(1949.080078 0)"/>
      </g>
     </g>
    </g>
    <g id="ytick_16">
     <g id="line2d_28">
      <g>
       <use xlink:href="#m68be1393fb" x="226.865625" y="130.009236" style="stroke: #000000; stroke-width: 0.8"/>
      </g>
     </g>
     <g id="text_23">
      <!-- National Tsinghua University -->
      <g transform="translate(77.460938 133.808455) scale(0.1 -0.1)">
       <defs>
        <path id="DejaVuSans-4e" d="M 628 4666 
L 1478 4666 
L 3547 763 
L 3547 4666 
L 4159 4666 
L 4159 0 
L 3309 0 
L 1241 3903 
L 1241 0 
L 628 0 
L 628 4666 
z
" transform="scale(0.015625)"/>
       </defs>
       <use xlink:href="#DejaVuSans-4e"/>
       <use xlink:href="#DejaVuSans-61" transform="translate(74.804688 0)"/>
       <use xlink:href="#DejaVuSans-74" transform="translate(136.083984 0)"/>
       <use xlink:href="#DejaVuSans-69" transform="translate(175.292969 0)"/>
       <use xlink:href="#DejaVuSans-6f" transform="translate(203.076172 0)"/>
       <use xlink:href="#DejaVuSans-6e" transform="translate(264.257812 0)"/>
       <use xlink:href="#DejaVuSans-61" transform="translate(327.636719 0)"/>
       <use xlink:href="#DejaVuSans-6c" transform="translate(388.916016 0)"/>
       <use xlink:href="#DejaVuSans-20" transform="translate(416.699219 0)"/>
       <use xlink:href="#DejaVuSans-54" transform="translate(448.486328 0)"/>
       <use xlink:href="#DejaVuSans-73" transform="translate(493.070312 0)"/>
       <use xlink:href="#DejaVuSans-69" transform="translate(545.169922 0)"/>
       <use xlink:href="#DejaVuSans-6e" transform="translate(572.953125 0)"/>
       <use xlink:href="#DejaVuSans-67" transform="translate(636.332031 0)"/>
       <use xlink:href="#DejaVuSans-68" transform="translate(699.808594 0)"/>
       <use xlink:href="#DejaVuSans-75" transform="translate(763.1875 0)"/>
       <use xlink:href="#DejaVuSans-61" transform="translate(826.566406 0)"/>
       <use xlink:href="#DejaVuSans-20" transform="translate(887.845703 0)"/>
       <use xlink:href="#DejaVuSans-55" transform="translate(919.632812 0)"/>
       <use xlink:href="#DejaVuSans-6e" transform="translate(992.826172 0)"/>
       <use xlink:href="#DejaVuSans-69" transform="translate(1056.205078 0)"/>
       <use xlink:href="#DejaVuSans-76" transform="translate(1083.988281 0)"/>
       <use xlink:href="#DejaVuSans-65" transform="translate(1143.167969 0)"/>
       <use xlink:href="#DejaVuSans-72" transform="translate(1204.691406 0)"/>
       <use xlink:href="#DejaVuSans-73" transform="translate(1245.804688 0)"/>
       <use xlink:href="#DejaVuSans-69" transform="translate(1297.904297 0)"/>
       <use xlink:href="#DejaVuSans-74" transform="translate(1325.6875 0)"/>
       <use xlink:href="#DejaVuSans-79" transform="translate(1364.896484 0)"/>
      </g>
     </g>
    </g>
    <g id="ytick_17">
     <g id="line2d_29">
      <g>
       <use xlink:href="#m68be1393fb" x="226.865625" y="110.029438" style="stroke: #000000; stroke-width: 0.8"/>
      </g>
     </g>
     <g id="text_24">
      <!-- University of California, Irvine -->
      <g transform="translate(71.335938 113.828657) scale(0.1 -0.1)">
       <use xlink:href="#DejaVuSans-55"/>
       <use xlink:href="#DejaVuSans-6e" transform="translate(73.193359 0)"/>
       <use xlink:href="#DejaVuSans-69" transform="translate(136.572266 0)"/>
       <use xlink:href="#DejaVuSans-76" transform="translate(164.355469 0)"/>
       <use xlink:href="#DejaVuSans-65" transform="translate(223.535156 0)"/>
       <use xlink:href="#DejaVuSans-72" transform="translate(285.058594 0)"/>
       <use xlink:href="#DejaVuSans-73" transform="translate(326.171875 0)"/>
       <use xlink:href="#DejaVuSans-69" transform="translate(378.271484 0)"/>
       <use xlink:href="#DejaVuSans-74" transform="translate(406.054688 0)"/>
       <use xlink:href="#DejaVuSans-79" transform="translate(445.263672 0)"/>
       <use xlink:href="#DejaVuSans-20" transform="translate(504.443359 0)"/>
       <use xlink:href="#DejaVuSans-6f" transform="translate(536.230469 0)"/>
       <use xlink:href="#DejaVuSans-66" transform="translate(597.412109 0)"/>
       <use xlink:href="#DejaVuSans-20" transform="translate(632.617188 0)"/>
       <use xlink:href="#DejaVuSans-43" transform="translate(664.404297 0)"/>
       <use xlink:href="#DejaVuSans-61" transform="translate(734.228516 0)"/>
       <use xlink:href="#DejaVuSans-6c" transform="translate(795.507812 0)"/>
       <use xlink:href="#DejaVuSans-69" transform="translate(823.291016 0)"/>
       <use xlink:href="#DejaVuSans-66" transform="translate(851.074219 0)"/>
       <use xlink:href="#DejaVuSans-6f" transform="translate(886.279297 0)"/>
       <use xlink:href="#DejaVuSans-72" transform="translate(947.460938 0)"/>
       <use xlink:href="#DejaVuSans-6e" transform="translate(986.824219 0)"/>
       <use xlink:href="#DejaVuSans-69" transform="translate(1050.203125 0)"/>
       <use xlink:href="#DejaVuSans-61" transform="translate(1077.986328 0)"/>
       <use xlink:href="#DejaVuSans-2c" transform="translate(1139.265625 0)"/>
       <use xlink:href="#DejaVuSans-20" transform="translate(1171.052734 0)"/>
       <use xlink:href="#DejaVuSans-49" transform="translate(1202.839844 0)"/>
       <use xlink:href="#DejaVuSans-72" transform="translate(1232.332031 0)"/>
       <use xlink:href="#DejaVuSans-76" transform="translate(1273.445312 0)"/>
       <use xlink:href="#DejaVuSans-69" transform="translate(1332.625 0)"/>
       <use xlink:href="#DejaVuSans-6e" transform="translate(1360.408203 0)"/>
       <use xlink:href="#DejaVuSans-65" transform="translate(1423.787109 0)"/>
      </g>
     </g>
    </g>
    <g id="ytick_18">
     <g id="line2d_30">
      <g>
       <use xlink:href="#m68be1393fb" x="226.865625" y="90.04964" style="stroke: #000000; stroke-width: 0.8"/>
      </g>
     </g>
     <g id="text_25">
      <!-- University of Wisconsin - Madison -->
      <g transform="translate(51.984375 93.848859) scale(0.1 -0.1)">
       <defs>
        <path id="DejaVuSans-57" d="M 213 4666 
L 850 4666 
L 1831 722 
L 2809 4666 
L 3519 4666 
L 4500 722 
L 5478 4666 
L 6119 4666 
L 4947 0 
L 4153 0 
L 3169 4050 
L 2175 0 
L 1381 0 
L 213 4666 
z
" transform="scale(0.015625)"/>
       </defs>
       <use xlink:href="#DejaVuSans-55"/>
       <use xlink:href="#DejaVuSans-6e" transform="translate(73.193359 0)"/>
       <use xlink:href="#DejaVuSans-69" transform="translate(136.572266 0)"/>
       <use xlink:href="#DejaVuSans-76" transform="translate(164.355469 0)"/>
       <use xlink:href="#DejaVuSans-65" transform="translate(223.535156 0)"/>
       <use xlink:href="#DejaVuSans-72" transform="translate(285.058594 0)"/>
       <use xlink:href="#DejaVuSans-73" transform="translate(326.171875 0)"/>
       <use xlink:href="#DejaVuSans-69" transform="translate(378.271484 0)"/>
       <use xlink:href="#DejaVuSans-74" transform="translate(406.054688 0)"/>
       <use xlink:href="#DejaVuSans-79" transform="translate(445.263672 0)"/>
       <use xlink:href="#DejaVuSans-20" transform="translate(504.443359 0)"/>
       <use xlink:href="#DejaVuSans-6f" transform="translate(536.230469 0)"/>
       <use xlink:href="#DejaVuSans-66" transform="translate(597.412109 0)"/>
       <use xlink:href="#DejaVuSans-20" transform="translate(632.617188 0)"/>
       <use xlink:href="#DejaVuSans-57" transform="translate(664.404297 0)"/>
       <use xlink:href="#DejaVuSans-69" transform="translate(761.03125 0)"/>
       <use xlink:href="#DejaVuSans-73" transform="translate(788.814453 0)"/>
       <use xlink:href="#DejaVuSans-63" transform="translate(840.914062 0)"/>
       <use xlink:href="#DejaVuSans-6f" transform="translate(895.894531 0)"/>
       <use xlink:href="#DejaVuSans-6e" transform="translate(957.076172 0)"/>
       <use xlink:href="#DejaVuSans-73" transform="translate(1020.455078 0)"/>
       <use xlink:href="#DejaVuSans-69" transform="translate(1072.554688 0)"/>
       <use xlink:href="#DejaVuSans-6e" transform="translate(1100.337891 0)"/>
       <use xlink:href="#DejaVuSans-20" transform="translate(1163.716797 0)"/>
       <use xlink:href="#DejaVuSans-2d" transform="translate(1195.503906 0)"/>
       <use xlink:href="#DejaVuSans-20" transform="translate(1231.587891 0)"/>
       <use xlink:href="#DejaVuSans-4d" transform="translate(1263.375 0)"/>
       <use xlink:href="#DejaVuSans-61" transform="translate(1349.654297 0)"/>
       <use xlink:href="#DejaVuSans-64" transform="translate(1410.933594 0)"/>
       <use xlink:href="#DejaVuSans-69" transform="translate(1474.410156 0)"/>
       <use xlink:href="#DejaVuSans-73" transform="translate(1502.193359 0)"/>
       <use xlink:href="#DejaVuSans-6f" transform="translate(1554.292969 0)"/>
       <use xlink:href="#DejaVuSans-6e" transform="translate(1615.474609 0)"/>
      </g>
     </g>
    </g>
    <g id="ytick_19">
     <g id="line2d_31">
      <g>
       <use xlink:href="#m68be1393fb" x="226.865625" y="70.069842" style="stroke: #000000; stroke-width: 0.8"/>
      </g>
     </g>
     <g id="text_26">
      <!-- Purdue University -->
      <g transform="translate(131.276562 73.869061) scale(0.1 -0.1)">
       <use xlink:href="#DejaVuSans-50"/>
       <use xlink:href="#DejaVuSans-75" transform="translate(58.552734 0)"/>
       <use xlink:href="#DejaVuSans-72" transform="translate(121.931641 0)"/>
       <use xlink:href="#DejaVuSans-64" transform="translate(161.294922 0)"/>
       <use xlink:href="#DejaVuSans-75" transform="translate(224.771484 0)"/>
       <use xlink:href="#DejaVuSans-65" transform="translate(288.150391 0)"/>
       <use xlink:href="#DejaVuSans-20" transform="translate(349.673828 0)"/>
       <use xlink:href="#DejaVuSans-55" transform="translate(381.460938 0)"/>
       <use xlink:href="#DejaVuSans-6e" transform="translate(454.654297 0)"/>
       <use xlink:href="#DejaVuSans-69" transform="translate(518.033203 0)"/>
       <use xlink:href="#DejaVuSans-76" transform="translate(545.816406 0)"/>
       <use xlink:href="#DejaVuSans-65" transform="translate(604.996094 0)"/>
       <use xlink:href="#DejaVuSans-72" transform="translate(666.519531 0)"/>
       <use xlink:href="#DejaVuSans-73" transform="translate(707.632812 0)"/>
       <use xlink:href="#DejaVuSans-69" transform="translate(759.732422 0)"/>
       <use xlink:href="#DejaVuSans-74" transform="translate(787.515625 0)"/>
       <use xlink:href="#DejaVuSans-79" transform="translate(826.724609 0)"/>
      </g>
     </g>
    </g>
    <g id="ytick_20">
     <g id="line2d_32">
      <g>
       <use xlink:href="#m68be1393fb" x="226.865625" y="50.090044" style="stroke: #000000; stroke-width: 0.8"/>
      </g>
     </g>
     <g id="text_27">
      <!-- University of Illinois Urbana-Champaign -->
      <g transform="translate(21.410937 53.889263) scale(0.1 -0.1)">
       <use xlink:href="#DejaVuSans-55"/>
       <use xlink:href="#DejaVuSans-6e" transform="translate(73.193359 0)"/>
       <use xlink:href="#DejaVuSans-69" transform="translate(136.572266 0)"/>
       <use xlink:href="#DejaVuSans-76" transform="translate(164.355469 0)"/>
       <use xlink:href="#DejaVuSans-65" transform="translate(223.535156 0)"/>
       <use xlink:href="#DejaVuSans-72" transform="translate(285.058594 0)"/>
       <use xlink:href="#DejaVuSans-73" transform="translate(326.171875 0)"/>
       <use xlink:href="#DejaVuSans-69" transform="translate(378.271484 0)"/>
       <use xlink:href="#DejaVuSans-74" transform="translate(406.054688 0)"/>
       <use xlink:href="#DejaVuSans-79" transform="translate(445.263672 0)"/>
       <use xlink:href="#DejaVuSans-20" transform="translate(504.443359 0)"/>
       <use xlink:href="#DejaVuSans-6f" transform="translate(536.230469 0)"/>
       <use xlink:href="#DejaVuSans-66" transform="translate(597.412109 0)"/>
       <use xlink:href="#DejaVuSans-20" transform="translate(632.617188 0)"/>
       <use xlink:href="#DejaVuSans-49" transform="translate(664.404297 0)"/>
       <use xlink:href="#DejaVuSans-6c" transform="translate(693.896484 0)"/>
       <use xlink:href="#DejaVuSans-6c" transform="translate(721.679688 0)"/>
       <use xlink:href="#DejaVuSans-69" transform="translate(749.462891 0)"/>
       <use xlink:href="#DejaVuSans-6e" transform="translate(777.246094 0)"/>
       <use xlink:href="#DejaVuSans-6f" transform="translate(840.625 0)"/>
       <use xlink:href="#DejaVuSans-69" transform="translate(901.806641 0)"/>
       <use xlink:href="#DejaVuSans-73" transform="translate(929.589844 0)"/>
       <use xlink:href="#DejaVuSans-20" transform="translate(981.689453 0)"/>
       <use xlink:href="#DejaVuSans-55" transform="translate(1013.476562 0)"/>
       <use xlink:href="#DejaVuSans-72" transform="translate(1086.669922 0)"/>
       <use xlink:href="#DejaVuSans-62" transform="translate(1127.783203 0)"/>
       <use xlink:href="#DejaVuSans-61" transform="translate(1191.259766 0)"/>
       <use xlink:href="#DejaVuSans-6e" transform="translate(1252.539062 0)"/>
       <use xlink:href="#DejaVuSans-61" transform="translate(1315.917969 0)"/>
       <use xlink:href="#DejaVuSans-2d" transform="translate(1377.197266 0)"/>
       <use xlink:href="#DejaVuSans-43" transform="translate(1413.28125 0)"/>
       <use xlink:href="#DejaVuSans-68" transform="translate(1483.105469 0)"/>
       <use xlink:href="#DejaVuSans-61" transform="translate(1546.484375 0)"/>
       <use xlink:href="#DejaVuSans-6d" transform="translate(1607.763672 0)"/>
       <use xlink:href="#DejaVuSans-70" transform="translate(1705.175781 0)"/>
       <use xlink:href="#DejaVuSans-61" transform="translate(1768.652344 0)"/>
       <use xlink:href="#DejaVuSans-69" transform="translate(1829.931641 0)"/>
       <use xlink:href="#DejaVuSans-67" transform="translate(1857.714844 0)"/>
       <use xlink:href="#DejaVuSans-6e" transform="translate(1921.191406 0)"/>
      </g>
     </g>
    </g>
   </g>
   <g id="patch_23">
    <path d="M 226.865625 457.478125 
L 226.865625 22.318125 
" style="fill: none; stroke: #000000; stroke-width: 0.8; stroke-linejoin: miter; stroke-linecap: square"/>
   </g>
   <g id="patch_24">
    <path d="M 705.865625 457.478125 
L 705.865625 22.318125 
" style="fill: none; stroke: #000000; stroke-width: 0.8; stroke-linejoin: miter; stroke-linecap: square"/>
   </g>
   <g id="patch_25">
    <path d="M 226.865625 457.478125 
L 705.865625 457.478125 
" style="fill: none; stroke: #000000; stroke-width: 0.8; stroke-linejoin: miter; stroke-linecap: square"/>
   </g>
   <g id="patch_26">
    <path d="M 226.865625 22.318125 
L 705.865625 22.318125 
" style="fill: none; stroke: #000000; stroke-width: 0.8; stroke-linejoin: miter; stroke-linecap: square"/>
   </g>
   <g id="text_28">
    <!-- 24 -->
    <g transform="translate(344.2994 431.913706) scale(0.08 -0.08)">
     <use xlink:href="#DejaVuSans-32"/>
     <use xlink:href="#DejaVuSans-34" transform="translate(63.623047 0)"/>
    </g>
   </g>
   <g id="text_29">
    <!-- 25 -->
    <g transform="translate(349.002395 411.933908) scale(0.08 -0.08)">
     <defs>
      <path id="DejaVuSans-35" d="M 691 4666 
L 3169 4666 
L 3169 4134 
L 1269 4134 
L 1269 2991 
Q 1406 3038 1543 3061 
Q 1681 3084 1819 3084 
Q 2600 3084 3056 2656 
Q 3513 2228 3513 1497 
Q 3513 744 3044 326 
Q 2575 -91 1722 -91 
Q 1428 -91 1123 -41 
Q 819 9 494 109 
L 494 744 
Q 775 591 1075 516 
Q 1375 441 1709 441 
Q 2250 441 2565 725 
Q 2881 1009 2881 1497 
Q 2881 1984 2565 2268 
Q 2250 2553 1709 2553 
Q 1456 2553 1204 2497 
Q 953 2441 691 2322 
L 691 4666 
z
" transform="scale(0.015625)"/>
     </defs>
     <use xlink:href="#DejaVuSans-32"/>
     <use xlink:href="#DejaVuSans-35" transform="translate(63.623047 0)"/>
    </g>
   </g>
   <g id="text_30">
    <!-- 26 -->
    <g transform="translate(353.705389 391.95411) scale(0.08 -0.08)">
     <use xlink:href="#DejaVuSans-32"/>
     <use xlink:href="#DejaVuSans-36" transform="translate(63.623047 0)"/>
    </g>
   </g>
   <g id="text_31">
    <!-- 26 -->
    <g transform="translate(353.705389 371.974312) scale(0.08 -0.08)">
     <use xlink:href="#DejaVuSans-32"/>
     <use xlink:href="#DejaVuSans-36" transform="translate(63.623047 0)"/>
    </g>
   </g>
   <g id="text_32">
    <!-- 27 -->
    <g transform="translate(358.408384 351.994514) scale(0.08 -0.08)">
     <defs>
      <path id="DejaVuSans-37" d="M 525 4666 
L 3525 4666 
L 3525 4397 
L 1831 0 
L 1172 0 
L 2766 4134 
L 525 4134 
L 525 4666 
z
" transform="scale(0.015625)"/>
     </defs>
     <use xlink:href="#DejaVuSans-32"/>
     <use xlink:href="#DejaVuSans-37" transform="translate(63.623047 0)"/>
    </g>
   </g>
   <g id="text_33">
    <!-- 28 -->
    <g transform="translate(363.111379 332.014716) scale(0.08 -0.08)">
     <use xlink:href="#DejaVuSans-32"/>
     <use xlink:href="#DejaVuSans-38" transform="translate(63.623047 0)"/>
    </g>
   </g>
   <g id="text_34">
    <!-- 29 -->
    <g transform="translate(367.814373 312.034918) scale(0.08 -0.08)">
     <defs>
      <path id="DejaVuSans-39" d="M 703 97 
L 703 672 
Q 941 559 1184 500 
Q 1428 441 1663 441 
Q 2288 441 2617 861 
Q 2947 1281 2994 2138 
Q 2813 1869 2534 1725 
Q 2256 1581 1919 1581 
Q 1219 1581 811 2004 
Q 403 2428 403 3163 
Q 403 3881 828 4315 
Q 1253 4750 1959 4750 
Q 2769 4750 3195 4129 
Q 3622 3509 3622 2328 
Q 3622 1225 3098 567 
Q 2575 -91 1691 -91 
Q 1453 -91 1209 -44 
Q 966 3 703 97 
z
M 1959 2075 
Q 2384 2075 2632 2365 
Q 2881 2656 2881 3163 
Q 2881 3666 2632 3958 
Q 2384 4250 1959 4250 
Q 1534 4250 1286 3958 
Q 1038 3666 1038 3163 
Q 1038 2656 1286 2365 
Q 1534 2075 1959 2075 
z
" transform="scale(0.015625)"/>
     </defs>
     <use xlink:href="#DejaVuSans-32"/>
     <use xlink:href="#DejaVuSans-39" transform="translate(63.623047 0)"/>
    </g>
   </g>
   <g id="text_35">
    <!-- 37 -->
    <g transform="translate(405.43833 292.05512) scale(0.08 -0.08)">
     <defs>
      <path id="DejaVuSans-33" d="M 2597 2516 
Q 3050 2419 3304 2112 
Q 3559 1806 3559 1356 
Q 3559 666 3084 287 
Q 2609 -91 1734 -91 
Q 1441 -91 1130 -33 
Q 819 25 488 141 
L 488 750 
Q 750 597 1062 519 
Q 1375 441 1716 441 
Q 2309 441 2620 675 
Q 2931 909 2931 1356 
Q 2931 1769 2642 2001 
Q 2353 2234 1838 2234 
L 1294 2234 
L 1294 2753 
L 1863 2753 
Q 2328 2753 2575 2939 
Q 2822 3125 2822 3475 
Q 2822 3834 2567 4026 
Q 2313 4219 1838 4219 
Q 1578 4219 1281 4162 
Q 984 4106 628 3988 
L 628 4550 
Q 988 4650 1302 4700 
Q 1616 4750 1894 4750 
Q 2613 4750 3031 4423 
Q 3450 4097 3450 3541 
Q 3450 3153 3228 2886 
Q 3006 2619 2597 2516 
z
" transform="scale(0.015625)"/>
     </defs>
     <use xlink:href="#DejaVuSans-33"/>
     <use xlink:href="#DejaVuSans-37" transform="translate(63.623047 0)"/>
    </g>
   </g>
   <g id="text_36">
    <!-- 38 -->
    <g transform="translate(410.141325 272.075322) scale(0.08 -0.08)">
     <use xlink:href="#DejaVuSans-33"/>
     <use xlink:href="#DejaVuSans-38" transform="translate(63.623047 0)"/>
    </g>
   </g>
   <g id="text_37">
    <!-- 42 -->
    <g transform="translate(428.953303 252.095524) scale(0.08 -0.08)">
     <use xlink:href="#DejaVuSans-34"/>
     <use xlink:href="#DejaVuSans-32" transform="translate(63.623047 0)"/>
    </g>
   </g>
   <g id="text_38">
    <!-- 44 -->
    <g transform="translate(438.359292 232.115726) scale(0.08 -0.08)">
     <use xlink:href="#DejaVuSans-34"/>
     <use xlink:href="#DejaVuSans-34" transform="translate(63.623047 0)"/>
    </g>
   </g>
   <g id="text_39">
    <!-- 47 -->
    <g transform="translate(452.468276 212.135928) scale(0.08 -0.08)">
     <use xlink:href="#DejaVuSans-34"/>
     <use xlink:href="#DejaVuSans-37" transform="translate(63.623047 0)"/>
    </g>
   </g>
   <g id="text_40">
    <!-- 47 -->
    <g transform="translate(452.468276 192.15613) scale(0.08 -0.08)">
     <use xlink:href="#DejaVuSans-34"/>
     <use xlink:href="#DejaVuSans-37" transform="translate(63.623047 0)"/>
    </g>
   </g>
   <g id="text_41">
    <!-- 48 -->
    <g transform="translate(457.171271 172.176332) scale(0.08 -0.08)">
     <use xlink:href="#DejaVuSans-34"/>
     <use xlink:href="#DejaVuSans-38" transform="translate(63.623047 0)"/>
    </g>
   </g>
   <g id="text_42">
    <!-- 49 -->
    <g transform="translate(461.874265 152.196534) scale(0.08 -0.08)">
     <use xlink:href="#DejaVuSans-34"/>
     <use xlink:href="#DejaVuSans-39" transform="translate(63.623047 0)"/>
    </g>
   </g>
   <g id="text_43">
    <!-- 49 -->
    <g transform="translate(461.874265 132.216736) scale(0.08 -0.08)">
     <use xlink:href="#DejaVuSans-34"/>
     <use xlink:href="#DejaVuSans-39" transform="translate(63.623047 0)"/>
    </g>
   </g>
   <g id="text_44">
    <!-- 54 -->
    <g transform="translate(485.389238 112.236938) scale(0.08 -0.08)">
     <use xlink:href="#DejaVuSans-35"/>
     <use xlink:href="#DejaVuSans-34" transform="translate(63.623047 0)"/>
    </g>
   </g>
   <g id="text_45">
    <!-- 63 -->
    <g transform="translate(527.71619 92.25714) scale(0.08 -0.08)">
     <use xlink:href="#DejaVuSans-36"/>
     <use xlink:href="#DejaVuSans-33" transform="translate(63.623047 0)"/>
    </g>
   </g>
   <g id="text_46">
    <!-- 86 -->
    <g transform="translate(635.885065 72.277342) scale(0.08 -0.08)">
     <use xlink:href="#DejaVuSans-38"/>
     <use xlink:href="#DejaVuSans-36" transform="translate(63.623047 0)"/>
    </g>
   </g>
   <g id="text_47">
    <!-- 97 -->
    <g transform="translate(687.618006 52.297544) scale(0.08 -0.08)">
     <use xlink:href="#DejaVuSans-39"/>
     <use xlink:href="#DejaVuSans-37" transform="translate(63.623047 0)"/>
    </g>
   </g>
   <g id="text_48">
    <!-- Top Institutions  All AE Committees -->
    <g transform="translate(341.1475 16.318125) scale(0.12 -0.12)">
     <defs>
      <path id="DejaVuSans-Bold-54" d="M 31 4666 
L 4331 4666 
L 4331 3756 
L 2784 3756 
L 2784 0 
L 1581 0 
L 1581 3756 
L 31 3756 
L 31 4666 
z
" transform="scale(0.015625)"/>
      <path id="DejaVuSans-Bold-6f" d="M 2203 2784 
Q 1831 2784 1636 2517 
Q 1441 2250 1441 1747 
Q 1441 1244 1636 976 
Q 1831 709 2203 709 
Q 2569 709 2762 976 
Q 2956 1244 2956 1747 
Q 2956 2250 2762 2517 
Q 2569 2784 2203 2784 
z
M 2203 3584 
Q 3106 3584 3614 3096 
Q 4122 2609 4122 1747 
Q 4122 884 3614 396 
Q 3106 -91 2203 -91 
Q 1297 -91 786 396 
Q 275 884 275 1747 
Q 275 2609 786 3096 
Q 1297 3584 2203 3584 
z
" transform="scale(0.015625)"/>
      <path id="DejaVuSans-Bold-70" d="M 1656 506 
L 1656 -1331 
L 538 -1331 
L 538 3500 
L 1656 3500 
L 1656 2988 
Q 1888 3294 2169 3439 
Q 2450 3584 2816 3584 
Q 3463 3584 3878 3070 
Q 4294 2556 4294 1747 
Q 4294 938 3878 423 
Q 3463 -91 2816 -91 
Q 2450 -91 2169 54 
Q 1888 200 1656 506 
z
M 2400 2772 
Q 2041 2772 1848 2508 
Q 1656 2244 1656 1747 
Q 1656 1250 1848 986 
Q 2041 722 2400 722 
Q 2759 722 2948 984 
Q 3138 1247 3138 1747 
Q 3138 2247 2948 2509 
Q 2759 2772 2400 2772 
z
" transform="scale(0.015625)"/>
      <path id="DejaVuSans-Bold-20" transform="scale(0.015625)"/>
      <path id="DejaVuSans-Bold-49" d="M 588 4666 
L 1791 4666 
L 1791 0 
L 588 0 
L 588 4666 
z
" transform="scale(0.015625)"/>
      <path id="DejaVuSans-Bold-6e" d="M 4056 2131 
L 4056 0 
L 2931 0 
L 2931 347 
L 2931 1631 
Q 2931 2084 2911 2256 
Q 2891 2428 2841 2509 
Q 2775 2619 2662 2680 
Q 2550 2741 2406 2741 
Q 2056 2741 1856 2470 
Q 1656 2200 1656 1722 
L 1656 0 
L 538 0 
L 538 3500 
L 1656 3500 
L 1656 2988 
Q 1909 3294 2193 3439 
Q 2478 3584 2822 3584 
Q 3428 3584 3742 3212 
Q 4056 2841 4056 2131 
z
" transform="scale(0.015625)"/>
      <path id="DejaVuSans-Bold-73" d="M 3272 3391 
L 3272 2541 
Q 2913 2691 2578 2766 
Q 2244 2841 1947 2841 
Q 1628 2841 1473 2761 
Q 1319 2681 1319 2516 
Q 1319 2381 1436 2309 
Q 1553 2238 1856 2203 
L 2053 2175 
Q 2913 2066 3209 1816 
Q 3506 1566 3506 1031 
Q 3506 472 3093 190 
Q 2681 -91 1863 -91 
Q 1516 -91 1145 -36 
Q 775 19 384 128 
L 384 978 
Q 719 816 1070 734 
Q 1422 653 1784 653 
Q 2113 653 2278 743 
Q 2444 834 2444 1013 
Q 2444 1163 2330 1236 
Q 2216 1309 1875 1350 
L 1678 1375 
Q 931 1469 631 1722 
Q 331 1975 331 2491 
Q 331 3047 712 3315 
Q 1094 3584 1881 3584 
Q 2191 3584 2531 3537 
Q 2872 3491 3272 3391 
z
" transform="scale(0.015625)"/>
      <path id="DejaVuSans-Bold-74" d="M 1759 4494 
L 1759 3500 
L 2913 3500 
L 2913 2700 
L 1759 2700 
L 1759 1216 
Q 1759 972 1856 886 
Q 1953 800 2241 800 
L 2816 800 
L 2816 0 
L 1856 0 
Q 1194 0 917 276 
Q 641 553 641 1216 
L 641 2700 
L 84 2700 
L 84 3500 
L 641 3500 
L 641 4494 
L 1759 4494 
z
" transform="scale(0.015625)"/>
      <path id="DejaVuSans-Bold-69" d="M 538 3500 
L 1656 3500 
L 1656 0 
L 538 0 
L 538 3500 
z
M 538 4863 
L 1656 4863 
L 1656 3950 
L 538 3950 
L 538 4863 
z
" transform="scale(0.015625)"/>
      <path id="DejaVuSans-Bold-75" d="M 500 1363 
L 500 3500 
L 1625 3500 
L 1625 3150 
Q 1625 2866 1622 2436 
Q 1619 2006 1619 1863 
Q 1619 1441 1641 1255 
Q 1663 1069 1716 984 
Q 1784 875 1895 815 
Q 2006 756 2150 756 
Q 2500 756 2700 1025 
Q 2900 1294 2900 1772 
L 2900 3500 
L 4019 3500 
L 4019 0 
L 2900 0 
L 2900 506 
Q 2647 200 2364 54 
Q 2081 -91 1741 -91 
Q 1134 -91 817 281 
Q 500 653 500 1363 
z
" transform="scale(0.015625)"/>
      <path id="DejaVuSans-Bold-2014" d="M 344 2156 
L 6056 2156 
L 6056 1350 
L 344 1350 
L 344 2156 
z
" transform="scale(0.015625)"/>
      <path id="DejaVuSans-Bold-41" d="M 3419 850 
L 1538 850 
L 1241 0 
L 31 0 
L 1759 4666 
L 3194 4666 
L 4922 0 
L 3713 0 
L 3419 850 
z
M 1838 1716 
L 3116 1716 
L 2478 3572 
L 1838 1716 
z
" transform="scale(0.015625)"/>
      <path id="DejaVuSans-Bold-6c" d="M 538 4863 
L 1656 4863 
L 1656 0 
L 538 0 
L 538 4863 
z
" transform="scale(0.015625)"/>
      <path id="DejaVuSans-Bold-45" d="M 588 4666 
L 3834 4666 
L 3834 3756 
L 1791 3756 
L 1791 2888 
L 3713 2888 
L 3713 1978 
L 1791 1978 
L 1791 909 
L 3903 909 
L 3903 0 
L 588 0 
L 588 4666 
z
" transform="scale(0.015625)"/>
      <path id="DejaVuSans-Bold-43" d="M 4288 256 
Q 3956 84 3597 -3 
Q 3238 -91 2847 -91 
Q 1681 -91 1000 561 
Q 319 1213 319 2328 
Q 319 3447 1000 4098 
Q 1681 4750 2847 4750 
Q 3238 4750 3597 4662 
Q 3956 4575 4288 4403 
L 4288 3438 
Q 3953 3666 3628 3772 
Q 3303 3878 2944 3878 
Q 2300 3878 1931 3465 
Q 1563 3053 1563 2328 
Q 1563 1606 1931 1193 
Q 2300 781 2944 781 
Q 3303 781 3628 887 
Q 3953 994 4288 1222 
L 4288 256 
z
" transform="scale(0.015625)"/>
      <path id="DejaVuSans-Bold-6d" d="M 3781 2919 
Q 3994 3244 4286 3414 
Q 4578 3584 4928 3584 
Q 5531 3584 5847 3212 
Q 6163 2841 6163 2131 
L 6163 0 
L 5038 0 
L 5038 1825 
Q 5041 1866 5042 1909 
Q 5044 1953 5044 2034 
Q 5044 2406 4934 2573 
Q 4825 2741 4581 2741 
Q 4263 2741 4089 2478 
Q 3916 2216 3909 1719 
L 3909 0 
L 2784 0 
L 2784 1825 
Q 2784 2406 2684 2573 
Q 2584 2741 2328 2741 
Q 2006 2741 1831 2477 
Q 1656 2213 1656 1722 
L 1656 0 
L 531 0 
L 531 3500 
L 1656 3500 
L 1656 2988 
Q 1863 3284 2130 3434 
Q 2397 3584 2719 3584 
Q 3081 3584 3359 3409 
Q 3638 3234 3781 2919 
z
" transform="scale(0.015625)"/>
      <path id="DejaVuSans-Bold-65" d="M 4031 1759 
L 4031 1441 
L 1416 1441 
Q 1456 1047 1700 850 
Q 1944 653 2381 653 
Q 2734 653 3104 758 
Q 3475 863 3866 1075 
L 3866 213 
Q 3469 63 3072 -14 
Q 2675 -91 2278 -91 
Q 1328 -91 801 392 
Q 275 875 275 1747 
Q 275 2603 792 3093 
Q 1309 3584 2216 3584 
Q 3041 3584 3536 3087 
Q 4031 2591 4031 1759 
z
M 2881 2131 
Q 2881 2450 2695 2645 
Q 2509 2841 2209 2841 
Q 1884 2841 1681 2658 
Q 1478 2475 1428 2131 
L 2881 2131 
z
" transform="scale(0.015625)"/>
     </defs>
     <use xlink:href="#DejaVuSans-Bold-54"/>
     <use xlink:href="#DejaVuSans-Bold-6f" transform="translate(54.962891 0)"/>
     <use xlink:href="#DejaVuSans-Bold-70" transform="translate(123.664062 0)"/>
     <use xlink:href="#DejaVuSans-Bold-20" transform="translate(195.246094 0)"/>
     <use xlink:href="#DejaVuSans-Bold-49" transform="translate(230.060547 0)"/>
     <use xlink:href="#DejaVuSans-Bold-6e" transform="translate(267.267578 0)"/>
     <use xlink:href="#DejaVuSans-Bold-73" transform="translate(338.458984 0)"/>
     <use xlink:href="#DejaVuSans-Bold-74" transform="translate(397.980469 0)"/>
     <use xlink:href="#DejaVuSans-Bold-69" transform="translate(445.783203 0)"/>
     <use xlink:href="#DejaVuSans-Bold-74" transform="translate(480.060547 0)"/>
     <use xlink:href="#DejaVuSans-Bold-75" transform="translate(527.863281 0)"/>
     <use xlink:href="#DejaVuSans-Bold-74" transform="translate(599.054688 0)"/>
     <use xlink:href="#DejaVuSans-Bold-69" transform="translate(646.857422 0)"/>
     <use xlink:href="#DejaVuSans-Bold-6f" transform="translate(681.134766 0)"/>
     <use xlink:href="#DejaVuSans-Bold-6e" transform="translate(749.835938 0)"/>
     <use xlink:href="#DejaVuSans-Bold-73" transform="translate(821.027344 0)"/>
     <use xlink:href="#DejaVuSans-Bold-20" transform="translate(880.548828 0)"/>
     <use xlink:href="#DejaVuSans-Bold-2014" transform="translate(915.363281 0)"/>
     <use xlink:href="#DejaVuSans-Bold-20" transform="translate(1015.363281 0)"/>
     <use xlink:href="#DejaVuSans-Bold-41" transform="translate(1050.177734 0)"/>
     <use xlink:href="#DejaVuSans-Bold-6c" transform="translate(1127.570312 0)"/>
     <use xlink:href="#DejaVuSans-Bold-6c" transform="translate(1161.847656 0)"/>
     <use xlink:href="#DejaVuSans-Bold-20" transform="translate(1196.125 0)"/>
     <use xlink:href="#DejaVuSans-Bold-41" transform="translate(1230.939453 0)"/>
     <use xlink:href="#DejaVuSans-Bold-45" transform="translate(1308.332031 0)"/>
     <use xlink:href="#DejaVuSans-Bold-20" transform="translate(1376.642578 0)"/>
     <use xlink:href="#DejaVuSans-Bold-43" transform="translate(1411.457031 0)"/>
     <use xlink:href="#DejaVuSans-Bold-6f" transform="translate(1484.845703 0)"/>
     <use xlink:href="#DejaVuSans-Bold-6d" transform="translate(1553.546875 0)"/>
     <use xlink:href="#DejaVuSans-Bold-6d" transform="translate(1657.746094 0)"/>
     <use xlink:href="#DejaVuSans-Bold-69" transform="translate(1761.945312 0)"/>
     <use xlink:href="#DejaVuSans-Bold-74" transform="translate(1796.222656 0)"/>
     <use xlink:href="#DejaVuSans-Bold-74" transform="translate(1844.025391 0)"/>
     <use xlink:href="#DejaVuSans-Bold-65" transform="translate(1891.828125 0)"/>
     <use xlink:href="#DejaVuSans-Bold-65" transform="translate(1959.650391 0)"/>
     <use xlink:href="#DejaVuSans-Bold-73" transform="translate(2027.472656 0)"/>
    </g>
   </g>
  </g>
 </g>
 <defs>
  <clipPath id="pcb696a2407">
   <rect x="226.865625" y="22.318125" width="479" height="435.16"/>
  </clipPath>
 </defs>
</svg>
